<svg width="575" height="272" viewBox="0 0 575 272" fill="none" xmlns="http://www.w3.org/2000/svg">
<mask id="path-1-outside-1_105_15" maskUnits="userSpaceOnUse" x="0.7117" y="0.0290527" width="536" height="210" fill="black">
<rect fill="white" x="0.7117" y="0.0290527" width="536" height="210"/>
<path d="M489.946 30.6986C500.613 28.7856 508.649 29.1216 514.055 31.7067C519.445 34.2078 522.614 38.1042 523.563 43.3958C523.849 44.9916 523.945 46.4916 523.85 47.8958C523.584 53.6653 520.772 58.2876 515.414 61.7628C510.124 65.1389 503.573 67.5274 495.762 68.9283C491.814 69.6363 488.073 70.0471 484.539 70.1608C485.238 74.5435 486.964 77.3984 489.716 78.7254C492.468 80.0524 496.028 80.3243 500.396 79.541C502.412 79.1794 504.306 78.623 506.079 77.8716C507.836 77.0363 510.06 75.9006 512.75 74.4645C514.951 73.2028 516.472 72.4966 517.312 72.346C518.235 72.1803 518.795 72.6434 518.991 73.7353C519.602 76.66 519.068 79.9636 517.387 83.646C515.692 87.2445 512.822 90.5768 508.777 93.643C504.732 96.7092 499.56 98.8071 493.26 99.9369C483.937 101.609 475.872 100.628 469.065 96.9938C462.258 93.3596 458.048 87.0489 456.437 78.0616C455.985 75.5418 455.793 72.5418 455.863 69.0616C456.11 58.3538 459.294 49.7635 465.416 43.2906C471.606 36.7186 479.783 32.5213 489.946 30.6986ZM484.065 62.4432C484.416 62.4669 484.886 62.4261 485.474 62.3207C489.002 61.688 491.396 59.5681 492.656 55.961C493.916 52.3538 494.143 48.542 493.336 44.5253C492.83 42.1886 491.947 41.1332 490.688 41.3591C489.764 41.5248 488.807 42.4766 487.818 44.2144C486.815 45.8683 485.946 48.2781 485.214 51.4438C484.565 54.5944 484.182 58.2609 484.065 62.4432Z"/>
<path d="M427.871 41.6432C432.737 40.7365 436.474 40.995 439.083 42.4185C441.692 43.842 443.293 46.1476 443.887 49.3354C444.247 51.2648 444.297 53.1651 444.038 55.0362L439.473 94.8178C439.409 95.8714 439.447 96.7757 439.588 97.5307C439.791 98.6212 440.165 99.463 440.709 100.056C441.238 100.565 441.935 101.043 442.799 101.489C443.496 101.967 444.009 102.392 444.339 102.765C444.653 103.054 444.781 103.507 444.723 104.126C444.506 105.294 443.816 106.248 442.651 106.985C441.487 107.723 439.604 108.334 437.004 108.819L408.314 114.165C406.132 114.572 404.476 114.533 403.344 114.05C402.197 113.482 401.682 112.58 401.798 111.343C401.946 110.274 402.663 109.229 403.948 108.208C405.082 107.302 405.982 106.31 406.649 105.231C407.316 104.152 407.755 102.551 407.967 100.428L412.138 62.0222C412.249 61.2203 412.258 60.5677 412.164 60.0644C411.992 59.1416 411.649 58.4676 411.136 58.0424C410.607 57.5334 409.869 57.0634 408.92 56.6325C407.956 56.1177 407.26 55.6399 406.83 55.1991C406.401 54.7583 406.234 54.095 406.329 53.2092C406.473 51.1859 408.803 49.0157 413.319 46.6986C417.819 44.2975 422.67 42.6124 427.871 41.6432ZM431.12 12.2629C434.392 11.6532 437.321 12.2357 439.909 14.0104C442.481 15.7012 444.056 18.0986 444.634 21.2025C445.041 23.3836 444.852 25.6322 444.069 27.9483C443.369 30.2487 442.095 32.2655 440.248 33.9985C438.469 35.632 436.322 36.6833 433.805 37.1522C430.617 37.7462 427.737 37.1979 425.165 35.5071C422.662 33.7168 421.071 31.2355 420.393 28.0633C420.002 25.9661 420.164 23.8092 420.88 21.5927C421.58 19.2922 422.811 17.2833 424.574 15.5659C426.338 13.8485 428.519 12.7475 431.12 12.2629Z"/>
<path d="M378.216 53.5928C383.026 52.8695 387.069 53.6423 390.344 55.9112C393.691 58.083 395.65 61.0675 396.221 64.8648C396.83 68.9153 396.082 72.2637 393.978 74.9101C391.873 77.5565 388.838 79.1778 384.872 79.7742C381.327 80.3072 378.452 79.8335 376.244 78.3533C374.024 76.7887 372.785 74.8608 372.527 72.5698C371.658 72.5279 370.991 72.9733 370.528 73.906C370.064 74.8386 369.678 76.5793 369.371 79.128C369.19 80.7947 368.611 82.392 367.632 83.9198C373.434 83.4789 377.892 84.146 381.007 85.9213C384.121 87.6965 385.939 90.3141 386.459 93.7738C386.713 95.4615 386.671 97.1936 386.334 98.9701L385.912 103.046C385.806 103.494 385.805 104.055 385.906 104.73C386.084 105.911 386.721 106.419 387.818 106.255C388.831 106.102 389.611 105.553 390.159 104.608C390.779 103.566 391.216 103.025 391.469 102.987C391.891 102.924 392.273 103.168 392.615 103.721C392.944 104.189 393.166 104.803 393.28 105.563C393.732 107.997 393.334 110.516 392.086 113.12C390.91 115.627 388.833 117.881 385.855 119.882C382.948 121.786 379.259 123.074 374.786 123.747C369.386 124.559 364.668 123.888 360.633 121.733C356.683 119.566 354.378 116.288 353.718 111.9C353.477 110.297 353.542 108.432 353.913 106.305L355.366 99.6143C355.559 98.032 355.605 96.9032 355.504 96.2282C355.339 95.1312 354.839 94.3866 354.003 93.9945C353.252 93.5897 352.117 93.5015 350.598 93.7299L348.066 94.1106L345.168 113.574C345.067 114.625 345.074 115.53 345.188 116.289C345.353 117.386 345.697 118.24 346.221 118.852C346.732 119.379 347.411 119.881 348.259 120.358C348.939 120.86 349.437 121.302 349.754 121.686C350.057 121.986 350.169 122.444 350.09 123.06C349.833 124.22 349.109 125.149 347.92 125.845C346.73 126.542 344.827 127.087 342.211 127.48L313.352 131.82C311.158 132.15 309.504 132.053 308.39 131.531C307.263 130.923 306.779 130.004 306.939 128.772C307.124 127.708 307.877 126.689 309.198 125.714C310.362 124.848 311.296 123.888 312 122.833C312.705 121.778 313.2 120.193 313.486 118.079L323.228 52.0242C323.367 51.2267 323.398 50.5747 323.322 50.0684C323.183 49.1402 322.815 48.4188 322.22 47.9042C321.709 47.377 321.03 46.8751 320.181 46.3986C319.236 45.8505 318.514 45.3549 318.016 44.9121C317.603 44.4565 317.459 43.7878 317.585 42.9059C317.8 40.8889 320.204 38.8015 324.798 36.6437C329.392 34.4859 334.305 33.0136 339.537 32.2269C344.432 31.4909 348.158 31.8798 350.715 33.3937C353.26 34.8232 354.773 37.1412 355.256 40.3478C355.547 42.2887 355.531 44.1895 355.207 46.0504L349.6 83.6542L353.778 83.0261C355.465 82.7723 356.739 82.063 357.6 80.8981C358.544 79.7205 359.166 78.1169 359.465 76.0872C360.636 69.5255 362.661 64.3454 365.542 60.5469C368.422 56.7483 372.647 54.4303 378.216 53.5928Z"/>
<path d="M269.965 74.0544C281.526 73.0401 290.232 74.6319 296.083 78.8299C302.018 83.0205 305.318 88.8986 305.982 96.4642C306.206 99.0144 306.115 101.892 305.711 105.097C304.708 112.209 302.227 118.594 298.269 124.253C294.304 129.826 289.218 134.341 283.011 137.798C276.881 141.163 270.076 143.173 262.596 143.83C250.78 144.866 241.819 143.297 235.713 139.121C229.685 134.853 226.328 128.809 225.642 120.988C225.411 118.353 225.493 115.39 225.89 112.1C226.923 105.328 229.469 99.1941 233.527 93.6984C237.662 88.1102 242.88 83.6264 249.179 80.2469C255.556 76.7749 262.485 74.7107 269.965 74.0544ZM270.579 85.4364C268.793 85.593 267.022 87.3759 265.266 90.7852C263.587 94.102 261.775 100.3 259.83 109.379C257.886 118.459 257.07 124.784 257.383 128.354C257.547 130.224 257.957 131.473 258.611 132.101C259.259 132.644 260.092 132.87 261.112 132.781C262.912 132.794 264.606 131.104 266.193 127.709C267.864 124.308 269.735 117.805 271.805 108.2C273.717 99.7234 274.508 93.6148 274.18 89.8745C274.024 88.0894 273.618 86.8829 272.963 86.2551C272.394 85.6198 271.599 85.3469 270.579 85.4364Z"/>
<path d="M175.47 70.0921C188.018 68.9441 198.1 71.0342 205.717 76.3623C213.325 81.5909 217.64 89.7819 218.66 100.935C219.143 106.213 218.866 111.962 217.828 118.183C215.861 129.61 212.096 139.494 206.533 147.835C200.969 156.177 194.038 162.736 185.739 167.512C177.439 172.288 168.211 175.14 158.053 176.07C145.605 177.209 135.577 175.164 127.969 169.935C120.352 164.607 116.033 156.366 115.013 145.213C114.548 140.134 114.862 134.231 115.953 127.503C117.83 116.185 121.505 106.41 126.977 98.1771C132.541 89.8355 139.427 83.3311 147.635 78.6638C155.935 73.8877 165.213 71.0305 175.47 70.0921ZM174.121 84.9769C171.133 85.2503 168.554 86.6913 166.382 89.3C164.211 91.9086 162.181 96.0609 160.292 101.757C158.494 107.344 156.692 115.09 154.887 124.996C152.179 139.302 151.067 149.094 151.549 154.372C151.832 157.459 152.585 159.65 153.808 160.944C155.031 162.238 156.837 162.775 159.227 162.557C162.215 162.283 164.794 160.842 166.965 158.234C169.128 155.525 171.108 151.378 172.906 145.791C174.705 140.203 176.566 132.552 178.488 122.836C181.115 108.739 182.173 98.9012 181.663 93.3245C181.371 90.1378 180.614 87.8975 179.391 86.6035C178.168 85.3096 176.411 84.7674 174.121 84.9769Z"/>
<path d="M107 133C107 158.405 89.3152 179 67.5 179C45.6847 179 28 158.405 28 133C28 107.595 45.6847 87.0001 67.5 87.0001C89.3152 87.0001 107 107.595 107 133Z"/>
<path d="M69.9858 196.717C60.567 198.101 51.8458 197.608 43.8222 195.236C35.7987 192.865 29.0498 188.645 23.5757 182.576C18.1972 176.379 14.7992 168.459 13.3817 158.816C12.3927 152.089 12.4986 144.627 13.6995 136.432C16.3849 118.855 22.3977 105.599 31.7377 96.6658C41.0613 87.6202 51.6659 82.2239 63.5514 80.4766C69.9428 79.5371 75.7453 79.6578 80.9592 80.8387C86.1731 82.0197 91.1181 84.0992 95.7943 87.0775L99.8163 82.8778C102.498 80.0781 104.781 78.0814 106.668 76.8877C108.666 75.6774 110.955 74.8828 113.534 74.5037C116.337 74.0916 118.671 74.3786 120.534 75.3648C122.397 76.351 123.502 78.0214 123.848 80.3761C124.029 81.6095 123.986 82.8759 123.719 84.1752L118.157 111.798C117.593 114.974 116.673 117.285 115.397 118.733C114.232 120.164 112.249 121.086 109.446 121.498C106.53 121.927 103.971 121.272 101.768 119.534C99.661 117.667 97.0592 114.384 93.9627 109.684C90.497 104.81 87.7995 101.655 85.8703 100.221C83.9411 98.7859 81.3507 98.3075 78.099 98.7855C73.5017 99.4614 69.493 102.972 66.0727 109.317C62.636 115.549 60.0121 124.584 58.2009 136.42C56.6866 146.379 56.3992 154.555 57.3388 160.946C58.1629 166.552 59.8463 170.6 62.3888 173.09C64.9148 175.468 67.9719 176.394 71.56 175.866C76.83 175.091 80.9739 173.28 83.9916 170.43C87.1214 167.565 90.1837 163.85 93.1784 159.286C95.0583 156.489 96.5887 154.431 97.7694 153.112C99.0457 151.665 100.469 150.825 102.039 150.595C104.057 150.298 106.336 150.994 108.875 152.683C111.414 154.371 112.776 156.233 112.961 158.268C113.435 160.718 111.978 164.827 108.587 170.595C105.309 176.346 100.33 181.832 93.6518 187.052C87.069 192.144 79.1803 195.365 69.9858 196.717Z"/>
</mask>
<path d="M489.946 30.6986C500.613 28.7856 508.649 29.1216 514.055 31.7067C519.445 34.2078 522.614 38.1042 523.563 43.3958C523.849 44.9916 523.945 46.4916 523.85 47.8958C523.584 53.6653 520.772 58.2876 515.414 61.7628C510.124 65.1389 503.573 67.5274 495.762 68.9283C491.814 69.6363 488.073 70.0471 484.539 70.1608C485.238 74.5435 486.964 77.3984 489.716 78.7254C492.468 80.0524 496.028 80.3243 500.396 79.541C502.412 79.1794 504.306 78.623 506.079 77.8716C507.836 77.0363 510.06 75.9006 512.75 74.4645C514.951 73.2028 516.472 72.4966 517.312 72.346C518.235 72.1803 518.795 72.6434 518.991 73.7353C519.602 76.66 519.068 79.9636 517.387 83.646C515.692 87.2445 512.822 90.5768 508.777 93.643C504.732 96.7092 499.56 98.8071 493.26 99.9369C483.937 101.609 475.872 100.628 469.065 96.9938C462.258 93.3596 458.048 87.0489 456.437 78.0616C455.985 75.5418 455.793 72.5418 455.863 69.0616C456.11 58.3538 459.294 49.7635 465.416 43.2906C471.606 36.7186 479.783 32.5213 489.946 30.6986ZM484.065 62.4432C484.416 62.4669 484.886 62.4261 485.474 62.3207C489.002 61.688 491.396 59.5681 492.656 55.961C493.916 52.3538 494.143 48.542 493.336 44.5253C492.83 42.1886 491.947 41.1332 490.688 41.3591C489.764 41.5248 488.807 42.4766 487.818 44.2144C486.815 45.8683 485.946 48.2781 485.214 51.4438C484.565 54.5944 484.182 58.2609 484.065 62.4432Z" fill="white"/>
<path d="M427.871 41.6432C432.737 40.7365 436.474 40.995 439.083 42.4185C441.692 43.842 443.293 46.1476 443.887 49.3354C444.247 51.2648 444.297 53.1651 444.038 55.0362L439.473 94.8178C439.409 95.8714 439.447 96.7757 439.588 97.5307C439.791 98.6212 440.165 99.463 440.709 100.056C441.238 100.565 441.935 101.043 442.799 101.489C443.496 101.967 444.009 102.392 444.339 102.765C444.653 103.054 444.781 103.507 444.723 104.126C444.506 105.294 443.816 106.248 442.651 106.985C441.487 107.723 439.604 108.334 437.004 108.819L408.314 114.165C406.132 114.572 404.476 114.533 403.344 114.05C402.197 113.482 401.682 112.58 401.798 111.343C401.946 110.274 402.663 109.229 403.948 108.208C405.082 107.302 405.982 106.31 406.649 105.231C407.316 104.152 407.755 102.551 407.967 100.428L412.138 62.0222C412.249 61.2203 412.258 60.5677 412.164 60.0644C411.992 59.1416 411.649 58.4676 411.136 58.0424C410.607 57.5334 409.869 57.0634 408.92 56.6325C407.956 56.1177 407.26 55.6399 406.83 55.1991C406.401 54.7583 406.234 54.095 406.329 53.2092C406.473 51.1859 408.803 49.0157 413.319 46.6986C417.819 44.2975 422.67 42.6124 427.871 41.6432ZM431.12 12.2629C434.392 11.6532 437.321 12.2357 439.909 14.0104C442.481 15.7012 444.056 18.0986 444.634 21.2025C445.041 23.3836 444.852 25.6322 444.069 27.9483C443.369 30.2487 442.095 32.2655 440.248 33.9985C438.469 35.632 436.322 36.6833 433.805 37.1522C430.617 37.7462 427.737 37.1979 425.165 35.5071C422.662 33.7168 421.071 31.2355 420.393 28.0633C420.002 25.9661 420.164 23.8092 420.88 21.5927C421.58 19.2922 422.811 17.2833 424.574 15.5659C426.338 13.8485 428.519 12.7475 431.12 12.2629Z" fill="white"/>
<path d="M378.216 53.5928C383.026 52.8695 387.069 53.6423 390.344 55.9112C393.691 58.083 395.65 61.0675 396.221 64.8648C396.83 68.9153 396.082 72.2637 393.978 74.9101C391.873 77.5565 388.838 79.1778 384.872 79.7742C381.327 80.3072 378.452 79.8335 376.244 78.3533C374.024 76.7887 372.785 74.8608 372.527 72.5698C371.658 72.5279 370.991 72.9733 370.528 73.906C370.064 74.8386 369.678 76.5793 369.371 79.128C369.19 80.7947 368.611 82.392 367.632 83.9198C373.434 83.4789 377.892 84.146 381.007 85.9213C384.121 87.6965 385.939 90.3141 386.459 93.7738C386.713 95.4615 386.671 97.1936 386.334 98.9701L385.912 103.046C385.806 103.494 385.805 104.055 385.906 104.73C386.084 105.911 386.721 106.419 387.818 106.255C388.831 106.102 389.611 105.553 390.159 104.608C390.779 103.566 391.216 103.025 391.469 102.987C391.891 102.924 392.273 103.168 392.615 103.721C392.944 104.189 393.166 104.803 393.28 105.563C393.732 107.997 393.334 110.516 392.086 113.12C390.91 115.627 388.833 117.881 385.855 119.882C382.948 121.786 379.259 123.074 374.786 123.747C369.386 124.559 364.668 123.888 360.633 121.733C356.683 119.566 354.378 116.288 353.718 111.9C353.477 110.297 353.542 108.432 353.913 106.305L355.366 99.6143C355.559 98.032 355.605 96.9032 355.504 96.2282C355.339 95.1312 354.839 94.3866 354.003 93.9945C353.252 93.5897 352.117 93.5015 350.598 93.7299L348.066 94.1106L345.168 113.574C345.067 114.625 345.074 115.53 345.188 116.289C345.353 117.386 345.697 118.24 346.221 118.852C346.732 119.379 347.411 119.881 348.259 120.358C348.939 120.86 349.437 121.302 349.754 121.686C350.057 121.986 350.169 122.444 350.09 123.06C349.833 124.22 349.109 125.149 347.92 125.845C346.73 126.542 344.827 127.087 342.211 127.48L313.352 131.82C311.158 132.15 309.504 132.053 308.39 131.531C307.263 130.923 306.779 130.004 306.939 128.772C307.124 127.708 307.877 126.689 309.198 125.714C310.362 124.848 311.296 123.888 312 122.833C312.705 121.778 313.2 120.193 313.486 118.079L323.228 52.0242C323.367 51.2267 323.398 50.5747 323.322 50.0684C323.183 49.1402 322.815 48.4188 322.22 47.9042C321.709 47.377 321.03 46.8751 320.181 46.3986C319.236 45.8505 318.514 45.3549 318.016 44.9121C317.603 44.4565 317.459 43.7878 317.585 42.9059C317.8 40.8889 320.204 38.8015 324.798 36.6437C329.392 34.4859 334.305 33.0136 339.537 32.2269C344.432 31.4909 348.158 31.8798 350.715 33.3937C353.26 34.8232 354.773 37.1412 355.256 40.3478C355.547 42.2887 355.531 44.1895 355.207 46.0504L349.6 83.6542L353.778 83.0261C355.465 82.7723 356.739 82.063 357.6 80.8981C358.544 79.7205 359.166 78.1169 359.465 76.0872C360.636 69.5255 362.661 64.3454 365.542 60.5469C368.422 56.7483 372.647 54.4303 378.216 53.5928Z" fill="white"/>
<path d="M269.965 74.0544C281.526 73.0401 290.232 74.6319 296.083 78.8299C302.018 83.0205 305.318 88.8986 305.982 96.4642C306.206 99.0144 306.115 101.892 305.711 105.097C304.708 112.209 302.227 118.594 298.269 124.253C294.304 129.826 289.218 134.341 283.011 137.798C276.881 141.163 270.076 143.173 262.596 143.83C250.78 144.866 241.819 143.297 235.713 139.121C229.685 134.853 226.328 128.809 225.642 120.988C225.411 118.353 225.493 115.39 225.89 112.1C226.923 105.328 229.469 99.1941 233.527 93.6984C237.662 88.1102 242.88 83.6264 249.179 80.2469C255.556 76.7749 262.485 74.7107 269.965 74.0544ZM270.579 85.4364C268.793 85.593 267.022 87.3759 265.266 90.7852C263.587 94.102 261.775 100.3 259.83 109.379C257.886 118.459 257.07 124.784 257.383 128.354C257.547 130.224 257.957 131.473 258.611 132.101C259.259 132.644 260.092 132.87 261.112 132.781C262.912 132.794 264.606 131.104 266.193 127.709C267.864 124.308 269.735 117.805 271.805 108.2C273.717 99.7234 274.508 93.6148 274.18 89.8745C274.024 88.0894 273.618 86.8829 272.963 86.2551C272.394 85.6198 271.599 85.3469 270.579 85.4364Z" fill="white"/>
<path d="M175.47 70.0921C188.018 68.9441 198.1 71.0342 205.717 76.3623C213.325 81.5909 217.64 89.7819 218.66 100.935C219.143 106.213 218.866 111.962 217.828 118.183C215.861 129.61 212.096 139.494 206.533 147.835C200.969 156.177 194.038 162.736 185.739 167.512C177.439 172.288 168.211 175.14 158.053 176.07C145.605 177.209 135.577 175.164 127.969 169.935C120.352 164.607 116.033 156.366 115.013 145.213C114.548 140.134 114.862 134.231 115.953 127.503C117.83 116.185 121.505 106.41 126.977 98.1771C132.541 89.8355 139.427 83.3311 147.635 78.6638C155.935 73.8877 165.213 71.0305 175.47 70.0921ZM174.121 84.9769C171.133 85.2503 168.554 86.6913 166.382 89.3C164.211 91.9086 162.181 96.0609 160.292 101.757C158.494 107.344 156.692 115.09 154.887 124.996C152.179 139.302 151.067 149.094 151.549 154.372C151.832 157.459 152.585 159.65 153.808 160.944C155.031 162.238 156.837 162.775 159.227 162.557C162.215 162.283 164.794 160.842 166.965 158.234C169.128 155.525 171.108 151.378 172.906 145.791C174.705 140.203 176.566 132.552 178.488 122.836C181.115 108.739 182.173 98.9012 181.663 93.3245C181.371 90.1378 180.614 87.8975 179.391 86.6035C178.168 85.3096 176.411 84.7674 174.121 84.9769Z" fill="white"/>
<path d="M107 133C107 158.405 89.3152 179 67.5 179C45.6847 179 28 158.405 28 133C28 107.595 45.6847 87.0001 67.5 87.0001C89.3152 87.0001 107 107.595 107 133Z" fill="#FF87A4"/>
<path d="M69.9858 196.717C60.567 198.101 51.8458 197.608 43.8222 195.236C35.7987 192.865 29.0498 188.645 23.5757 182.576C18.1972 176.379 14.7992 168.459 13.3817 158.816C12.3927 152.089 12.4986 144.627 13.6995 136.432C16.3849 118.855 22.3977 105.599 31.7377 96.6658C41.0613 87.6202 51.6659 82.2239 63.5514 80.4766C69.9428 79.5371 75.7453 79.6578 80.9592 80.8387C86.1731 82.0197 91.1181 84.0992 95.7943 87.0775L99.8163 82.8778C102.498 80.0781 104.781 78.0814 106.668 76.8877C108.666 75.6774 110.955 74.8828 113.534 74.5037C116.337 74.0916 118.671 74.3786 120.534 75.3648C122.397 76.351 123.502 78.0214 123.848 80.3761C124.029 81.6095 123.986 82.8759 123.719 84.1752L118.157 111.798C117.593 114.974 116.673 117.285 115.397 118.733C114.232 120.164 112.249 121.086 109.446 121.498C106.53 121.927 103.971 121.272 101.768 119.534C99.661 117.667 97.0592 114.384 93.9627 109.684C90.497 104.81 87.7995 101.655 85.8703 100.221C83.9411 98.7859 81.3507 98.3075 78.099 98.7855C73.5017 99.4614 69.493 102.972 66.0727 109.317C62.636 115.549 60.0121 124.584 58.2009 136.42C56.6866 146.379 56.3992 154.555 57.3388 160.946C58.1629 166.552 59.8463 170.6 62.3888 173.09C64.9148 175.468 67.9719 176.394 71.56 175.866C76.83 175.091 80.9739 173.28 83.9916 170.43C87.1214 167.565 90.1837 163.85 93.1784 159.286C95.0583 156.489 96.5887 154.431 97.7694 153.112C99.0457 151.665 100.469 150.825 102.039 150.595C104.057 150.298 106.336 150.994 108.875 152.683C111.414 154.371 112.776 156.233 112.961 158.268C113.435 160.718 111.978 164.827 108.587 170.595C105.309 176.346 100.33 181.832 93.6518 187.052C87.069 192.144 79.1803 195.365 69.9858 196.717Z" fill="white"/>
<path d="M489.946 30.6986L492.064 42.5102L489.946 30.6986ZM514.055 31.7067L508.877 42.5323L508.94 42.5625L509.004 42.5919L514.055 31.7067ZM523.563 43.3958L511.752 45.514L523.563 43.3958ZM523.85 47.8958L511.878 47.0861L511.869 47.2148L511.863 47.3437L523.85 47.8958ZM515.414 61.7628L521.87 71.8782L521.906 71.8547L521.943 71.831L515.414 61.7628ZM495.762 68.9283L497.88 80.7399L495.762 68.9283ZM484.539 70.1608L484.153 58.167L470.543 58.6046L472.689 72.0516L484.539 70.1608ZM489.716 78.7254L494.928 67.9163L494.928 67.9163L489.716 78.7254ZM500.396 79.541L498.278 67.7294L500.396 79.541ZM506.079 77.8716L510.762 88.92L510.998 88.8198L511.23 88.7096L506.079 77.8716ZM512.75 74.4645L518.401 85.0505L518.561 84.9653L518.717 84.8755L512.75 74.4645ZM517.312 72.346L515.193 60.5344L517.312 72.346ZM518.991 73.7353L507.18 75.8536L507.21 76.0223L507.245 76.19L518.991 73.7353ZM517.387 83.646L528.243 88.7606L528.274 88.6943L528.305 88.6276L517.387 83.646ZM493.26 99.9369L491.142 88.1253L493.26 99.9369ZM469.065 96.9938L474.716 86.4079L474.716 86.4079L469.065 96.9938ZM456.437 78.0616L444.625 80.1799L456.437 78.0616ZM455.863 69.0616L443.866 68.7848L443.866 68.8036L443.865 68.8223L455.863 69.0616ZM465.416 43.2906L474.134 51.5359L474.142 51.5272L474.151 51.5185L465.416 43.2906ZM484.065 62.4432L472.07 62.108L471.748 73.6377L483.256 74.4159L484.065 62.4432ZM485.474 62.3207L487.592 74.1322L485.474 62.3207ZM492.656 55.961L503.984 59.9192L503.984 59.9192L492.656 55.961ZM493.336 44.5253L505.101 42.1615L505.083 42.074L505.064 41.9868L493.336 44.5253ZM490.688 41.3591L488.569 29.5476L490.688 41.3591ZM487.818 44.2144L498.077 50.4408L498.165 50.296L498.248 50.1487L487.818 44.2144ZM485.214 51.4438L473.523 48.738L473.49 48.8805L473.46 49.0239L485.214 51.4438ZM427.871 41.6432L425.673 29.8463L427.871 41.6432ZM443.887 49.3354L455.684 47.1371L443.887 49.3354ZM444.038 55.0362L432.152 53.3912L432.132 53.5294L432.117 53.668L444.038 55.0362ZM439.473 94.8178L427.551 93.4496L427.514 93.7687L427.495 94.0893L439.473 94.8178ZM439.588 97.5307L451.384 95.3324L439.588 97.5307ZM440.709 100.056L431.87 108.172L432.121 108.445L432.387 108.702L440.709 100.056ZM442.799 101.489L449.586 91.5932L448.97 91.1707L448.306 90.8278L442.799 101.489ZM444.339 102.765L435.354 110.719L435.764 111.183L436.22 111.602L444.339 102.765ZM444.723 104.126L456.522 106.309L456.619 105.784L456.67 105.253L444.723 104.126ZM442.651 106.985L449.074 117.122L449.074 117.122L442.651 106.985ZM437.004 108.819L434.805 97.0221L437.004 108.819ZM408.314 114.165L406.115 102.368L408.314 114.165ZM403.344 114.05L398.025 124.806L398.323 124.954L398.63 125.085L403.344 114.05ZM401.798 111.343L389.912 109.698L389.876 109.956L389.851 110.216L401.798 111.343ZM403.948 108.208L411.411 117.606L411.425 117.594L411.44 117.583L403.948 108.208ZM407.967 100.428L396.037 99.1326L396.032 99.184L396.027 99.2354L407.967 100.428ZM412.138 62.0222L400.252 60.3772L400.227 60.5516L400.208 60.7266L412.138 62.0222ZM412.164 60.0644L423.961 57.8661L412.164 60.0644ZM411.136 58.0424L402.814 66.6881L403.137 66.9982L403.481 67.2834L411.136 58.0424ZM408.92 56.6325L403.268 67.2176L403.606 67.3986L403.956 67.5575L408.92 56.6325ZM406.83 55.1991L398.234 63.5719L398.234 63.5719L406.83 55.1991ZM406.329 53.2092L418.261 54.4934L418.284 54.277L418.299 54.0599L406.329 53.2092ZM413.319 46.6986L418.797 57.3752L418.883 57.3312L418.968 57.286L413.319 46.6986ZM431.12 12.2629L428.922 0.465948L431.12 12.2629ZM439.909 14.0104L433.122 23.9065L433.219 23.9731L433.317 24.0377L439.909 14.0104ZM444.634 21.2025L432.837 23.4007L432.837 23.4007L444.634 21.2025ZM444.069 27.9483L432.702 24.1023L432.642 24.2783L432.588 24.4561L444.069 27.9483ZM440.248 33.9985L448.365 42.8372L448.412 42.7937L448.459 42.7497L440.248 33.9985ZM433.805 37.1522L436.003 48.9492L433.805 37.1522ZM425.165 35.5071L418.185 45.2682L418.377 45.4051L418.573 45.5343L425.165 35.5071ZM420.393 28.0633L408.596 30.2616L408.625 30.4168L408.658 30.5712L420.393 28.0633ZM420.88 21.5927L432.3 25.2784L432.331 25.1819L432.361 25.0849L420.88 21.5927ZM424.574 15.5659L432.947 24.1621L432.947 24.1621L424.574 15.5659ZM378.216 53.5928L380.001 65.4594L378.216 53.5928ZM390.344 55.9112L383.511 65.7754L383.66 65.8787L383.812 65.9775L390.344 55.9112ZM396.221 64.8648L384.354 66.6492L396.221 64.8648ZM393.978 74.9101L403.37 82.3792L403.37 82.3792L393.978 74.9101ZM384.872 79.7742L383.087 67.9076L384.872 79.7742ZM376.244 78.3533L369.331 88.162L369.445 88.2422L369.561 88.3198L376.244 78.3533ZM372.527 72.5698L384.452 71.2258L383.308 61.0752L373.105 60.5837L372.527 72.5698ZM370.528 73.906L381.272 79.2492L381.272 79.2491L370.528 73.906ZM369.371 79.128L357.457 77.6925L357.449 77.763L357.441 77.8336L369.371 79.128ZM367.632 83.9198L357.527 77.4485L344.553 97.7085L368.542 95.8853L367.632 83.9198ZM381.007 85.9213L386.949 75.4959L386.949 75.4959L381.007 85.9213ZM386.459 93.7738L398.326 91.9894L386.459 93.7738ZM386.334 98.9701L374.545 96.7343L374.45 97.2304L374.398 97.7327L386.334 98.9701ZM385.912 103.046L397.592 105.797L397.769 105.048L397.848 104.284L385.912 103.046ZM385.906 104.73L374.039 106.514L385.906 104.73ZM387.818 106.255L389.602 118.121L387.818 106.255ZM390.159 104.608L379.845 98.4747L379.811 98.5314L379.778 98.5884L390.159 104.608ZM391.469 102.987L389.684 91.1207L391.469 102.987ZM392.615 103.721L382.41 110.036L382.596 110.336L382.799 110.624L392.615 103.721ZM393.28 105.563L381.413 107.347L381.444 107.552L381.482 107.755L393.28 105.563ZM392.086 113.12L381.265 107.934L381.244 107.978L381.223 108.022L392.086 113.12ZM385.855 119.882L392.43 129.92L392.489 129.881L392.547 129.842L385.855 119.882ZM374.786 123.747L376.571 135.613L374.786 123.747ZM360.633 121.733L354.861 132.253L354.921 132.286L354.981 132.318L360.633 121.733ZM353.718 111.9L341.852 113.684L353.718 111.9ZM353.913 106.305L342.186 103.758L342.133 104L342.091 104.245L353.913 106.305ZM355.366 99.6143L367.092 102.162L367.21 101.621L367.277 101.071L355.366 99.6143ZM355.504 96.2282L343.637 98.0126L355.504 96.2282ZM354.003 93.9945L348.311 104.558L348.604 104.716L348.905 104.858L354.003 93.9945ZM350.598 93.7299L352.382 105.597L352.382 105.597L350.598 93.7299ZM348.066 94.1106L346.282 82.244L337.504 83.5639L336.197 92.3433L348.066 94.1106ZM345.168 113.574L333.299 111.807L333.253 112.116L333.223 112.427L345.168 113.574ZM345.188 116.289L333.322 118.074L345.188 116.289ZM346.221 118.852L337.104 126.655L337.344 126.936L337.602 127.201L346.221 118.852ZM348.259 120.358L355.389 110.705L354.788 110.261L354.136 109.895L348.259 120.358ZM349.754 121.686L340.496 129.322L340.89 129.799L341.331 130.234L349.754 121.686ZM350.09 123.06L361.806 125.654L361.921 125.133L361.99 124.604L350.09 123.06ZM347.92 125.845L341.856 115.49L341.856 115.49L347.92 125.845ZM342.211 127.48L343.996 139.347L343.996 139.347L342.211 127.48ZM313.352 131.82L311.567 119.953L311.567 119.953L313.352 131.82ZM308.39 131.531L302.697 142.095L302.99 142.253L303.292 142.394L308.39 131.531ZM306.939 128.772L295.117 126.712L295.073 126.969L295.039 127.227L306.939 128.772ZM309.198 125.714L316.327 135.366L316.342 135.356L316.356 135.345L309.198 125.714ZM313.486 118.079L301.614 116.328L301.604 116.399L301.594 116.47L313.486 118.079ZM323.228 52.0242L311.406 49.9645L311.379 50.1186L311.356 50.2733L323.228 52.0242ZM323.322 50.0684L335.189 48.284L323.322 50.0684ZM322.22 47.9042L313.601 56.2536L313.97 56.6347L314.372 56.9818L322.22 47.9042ZM320.181 46.3986L314.162 56.7796L314.233 56.8208L314.305 56.8611L320.181 46.3986ZM318.016 44.9121L309.133 52.9792L309.563 53.4537L310.043 53.8797L318.016 44.9121ZM317.585 42.9059L329.464 44.6066L329.495 44.3911L329.518 44.1746L317.585 42.9059ZM324.798 36.6437L319.697 25.7821L319.697 25.7821L324.798 36.6437ZM339.537 32.2269L337.753 20.3603L339.537 32.2269ZM350.715 33.3937L344.603 43.7202L344.72 43.7895L344.838 43.8561L350.715 33.3937ZM355.256 40.3478L343.389 42.1322L355.256 40.3478ZM355.207 46.0504L343.385 43.9907L343.36 44.1355L343.338 44.2808L355.207 46.0504ZM349.6 83.6542L337.732 81.8846L335.339 97.9337L351.385 95.5208L349.6 83.6542ZM353.778 83.0261L355.562 94.8927L355.562 94.8927L353.778 83.0261ZM357.6 80.8981L348.24 73.3888L348.089 73.5759L347.947 73.7689L357.6 80.8981ZM359.465 76.0872L347.651 73.9797L347.619 74.159L347.593 74.3392L359.465 76.0872ZM365.542 60.5469L375.103 67.7976L375.103 67.7976L365.542 60.5469ZM269.965 74.0544L271.014 86.0085L269.965 74.0544ZM296.083 78.8299L289.087 88.5797L289.124 88.6065L289.162 88.633L296.083 78.8299ZM305.982 96.4642L317.936 95.4154L305.982 96.4642ZM305.711 105.097L317.594 106.773L317.606 106.686L317.617 106.598L305.711 105.097ZM298.269 124.253L308.047 131.21L308.075 131.17L308.102 131.131L298.269 124.253ZM283.011 137.798L288.785 148.317L288.817 148.3L288.85 148.282L283.011 137.798ZM262.596 143.83L263.645 155.784L262.596 143.83ZM235.713 139.121L228.779 148.915L228.859 148.971L228.939 149.026L235.713 139.121ZM225.642 120.988L213.688 122.037L225.642 120.988ZM225.89 112.1L214.027 110.29L213.999 110.477L213.976 110.664L225.89 112.1ZM233.527 93.6984L223.881 86.5601L223.873 86.5705L233.527 93.6984ZM249.179 80.2469L254.852 90.8213L254.885 90.8037L254.917 90.786L249.179 80.2469ZM270.579 85.4364L271.627 97.3904L270.579 85.4364ZM265.266 90.7852L254.599 85.2886L254.579 85.3267L254.56 85.365L265.266 90.7852ZM257.383 128.354L245.429 129.403L257.383 128.354ZM258.611 132.101L250.306 140.762L250.594 141.039L250.9 141.295L258.611 132.101ZM261.112 132.781L261.202 120.781L260.632 120.777L260.064 120.827L261.112 132.781ZM266.193 127.709L255.423 122.417L255.371 122.522L255.322 122.628L266.193 127.709ZM271.805 108.2L260.099 105.56L260.086 105.616L260.074 105.672L271.805 108.2ZM274.18 89.8745L262.226 90.9234L274.18 89.8745ZM272.963 86.2551L264.029 94.2666L264.331 94.6032L264.658 94.9162L272.963 86.2551ZM175.47 70.0921L176.564 82.0422L175.47 70.0921ZM205.717 76.3623L198.839 86.1954L198.88 86.2239L198.921 86.252L205.717 76.3623ZM218.66 100.935L230.61 99.842L218.66 100.935ZM217.828 118.183L229.654 120.219L229.659 120.188L229.664 120.157L217.828 118.183ZM206.533 147.835L196.549 141.177L196.549 141.177L206.533 147.835ZM185.739 167.512L191.724 177.912L191.724 177.912L185.739 167.512ZM158.053 176.07L156.96 164.12L158.053 176.07ZM127.969 169.935L121.091 179.768L121.132 179.797L121.173 179.825L127.969 169.935ZM115.013 145.213L103.063 146.306L115.013 145.213ZM115.953 127.503L104.115 125.541L104.112 125.561L104.108 125.581L115.953 127.503ZM126.977 98.1771L116.994 91.5189L116.989 91.5265L116.984 91.534L126.977 98.1771ZM147.635 78.6638L153.567 89.0955L153.594 89.0801L153.621 89.0645L147.635 78.6638ZM174.121 84.9769L175.214 96.927L175.214 96.927L174.121 84.9769ZM160.292 101.757L148.902 97.9794L148.885 98.0295L148.869 98.0798L160.292 101.757ZM154.887 124.996L166.678 127.227L166.685 127.187L166.693 127.147L154.887 124.996ZM151.549 154.372L139.599 155.465L151.549 154.372ZM159.227 162.557L160.32 174.507L159.227 162.557ZM166.965 158.234L176.189 165.91L176.267 165.816L176.343 165.721L166.965 158.234ZM178.488 122.836L190.26 125.166L190.273 125.1L190.285 125.034L178.488 122.836ZM181.663 93.3245L169.713 94.4178L181.663 93.3245ZM179.391 86.6035L188.112 78.3608L188.112 78.3608L179.391 86.6035ZM69.9858 196.717L68.2405 184.844L69.9858 196.717ZM43.8222 195.236L47.2237 183.728L47.2237 183.728L43.8222 195.236ZM23.5757 182.576L14.5131 190.442L14.5884 190.529L14.6654 190.614L23.5757 182.576ZM13.3817 158.816L25.2541 157.071L13.3817 158.816ZM13.6995 136.432L1.83714 134.62L1.83161 134.656L1.8263 134.692L13.6995 136.432ZM31.7377 96.6658L40.0321 105.338L40.063 105.308L40.0936 105.278L31.7377 96.6658ZM63.5514 80.4766L65.2967 92.3491L63.5514 80.4766ZM80.9592 80.8387L83.61 69.1352L83.61 69.1352L80.9592 80.8387ZM95.7943 87.0775L89.348 97.199L97.6516 102.487L104.461 95.3775L95.7943 87.0775ZM99.8163 82.8778L91.1497 74.5778L91.1497 74.5778L99.8163 82.8778ZM106.668 76.8877L100.452 66.6229L100.351 66.6841L100.251 66.7473L106.668 76.8877ZM113.534 74.5037L115.279 86.3761L113.534 74.5037ZM120.534 75.3648L114.92 85.9709L114.92 85.9709L120.534 75.3648ZM123.848 80.3761L135.72 78.6308L123.848 80.3761ZM123.719 84.1752L111.965 81.7581L111.96 81.7823L111.955 81.8066L123.719 84.1752ZM118.157 111.798L106.393 109.429L106.366 109.564L106.342 109.699L118.157 111.798ZM115.397 118.733L106.396 110.797L106.238 110.976L106.088 111.161L115.397 118.733ZM109.446 121.498L111.191 133.37L109.446 121.498ZM101.768 119.534L93.8111 128.516L94.0669 128.743L94.3352 128.954L101.768 119.534ZM93.9627 109.684L103.983 103.082L103.866 102.904L103.743 102.731L93.9627 109.684ZM85.8703 100.221L78.7093 109.85L78.7093 109.85L85.8703 100.221ZM78.099 98.7855L76.3537 86.9131L78.099 98.7855ZM66.0727 109.317L76.5811 115.111L76.6087 115.061L76.6358 115.011L66.0727 109.317ZM58.2009 136.42L46.339 134.605L46.3372 134.616L58.2009 136.42ZM57.3388 160.946L69.2112 159.201L57.3388 160.946ZM62.3888 173.09L53.9925 181.664L54.0772 181.747L54.1636 181.828L62.3888 173.09ZM71.56 175.866L69.8147 163.994L71.56 175.866ZM83.9916 170.43L75.888 161.58L75.8203 161.642L75.7534 161.705L83.9916 170.43ZM93.1784 159.286L83.2195 152.591L83.1821 152.646L83.1454 152.703L93.1784 159.286ZM97.7694 153.112L106.711 161.116L106.741 161.082L106.771 161.048L97.7694 153.112ZM102.039 150.595L103.784 162.467L102.039 150.595ZM108.875 152.683L115.52 142.69L115.52 142.69L108.875 152.683ZM112.961 158.268L101.01 159.352L101.065 159.955L101.18 160.55L112.961 158.268ZM108.587 170.595L98.242 164.514L98.2015 164.583L98.1618 164.652L108.587 170.595ZM93.6518 187.052L100.993 196.544L101.018 196.525L101.042 196.507L93.6518 187.052ZM492.064 42.5102C502.005 40.7274 506.94 41.6061 508.877 42.5323L519.232 20.8811C510.358 16.6371 499.221 16.8437 487.828 18.8871L492.064 42.5102ZM509.004 42.5919C511.282 43.6492 511.574 44.5218 511.752 45.514L535.375 41.2775C533.655 31.6866 527.607 24.7664 519.105 20.8215L509.004 42.5919ZM511.752 45.514C511.89 46.2872 511.897 46.7959 511.878 47.0861L535.823 48.7055C535.993 46.1873 535.809 43.696 535.375 41.2775L511.752 45.514ZM511.863 47.3437C511.796 48.7942 511.395 50.0665 508.884 51.6946L521.943 71.831C530.15 66.5088 535.373 58.5364 535.837 48.4478L511.863 47.3437ZM508.958 51.6475C505.288 53.9894 500.305 55.9221 493.644 57.1168L497.88 80.7399C506.842 79.1327 514.959 76.2885 521.87 71.8782L508.958 51.6475ZM493.644 57.1168C490.194 57.7355 487.035 58.0743 484.153 58.167L484.925 82.1546C489.111 82.02 493.435 81.5372 497.88 80.7399L493.644 57.1168ZM472.689 72.0516C473.709 78.4453 476.795 85.8173 484.504 89.5344L494.928 67.9163C495.333 68.1115 495.713 68.3725 496.035 68.6735C496.351 68.9688 496.538 69.2325 496.627 69.3812C496.781 69.636 496.571 69.4108 496.389 68.27L472.689 72.0516ZM484.504 89.5344C490.354 92.355 496.737 92.3886 502.514 91.3525L498.278 67.7294C495.319 68.26 494.583 67.7498 494.928 67.9163L484.504 89.5344ZM502.514 91.3525C505.355 90.843 508.115 90.0421 510.762 88.92L501.395 66.8233C500.497 67.2039 499.469 67.5158 498.278 67.7294L502.514 91.3525ZM511.23 88.7096C513.222 87.7627 515.627 86.5313 518.401 85.0505L507.099 63.8785C504.492 65.2698 502.45 66.3099 500.927 67.0336L511.23 88.7096ZM518.717 84.8755C519.172 84.6146 519.559 84.4016 519.882 84.2307C520.209 84.0581 520.443 83.9431 520.596 83.8721C520.758 83.7965 520.766 83.8004 520.648 83.843C520.584 83.8662 520.455 83.9112 520.271 83.964C520.092 84.0154 519.804 84.0904 519.43 84.1575L515.193 60.5344C513.199 60.892 511.466 61.6501 510.487 62.105C509.301 62.6555 508.046 63.329 506.782 64.0535L518.717 84.8755ZM519.43 84.1575C517.506 84.5025 513.966 84.4546 510.776 81.8157C507.973 79.4973 507.33 76.6913 507.18 75.8536L530.803 71.617C530.457 69.6874 529.436 66.1038 526.073 63.3224C522.323 60.2203 518.041 60.0237 515.193 60.5344L519.43 84.1575ZM507.245 76.19C507.176 75.8585 507.46 76.4958 506.47 78.6644L528.305 88.6276C530.676 83.4313 532.029 77.4615 530.737 71.2805L507.245 76.19ZM506.532 78.5315C505.859 79.9608 504.444 81.8694 501.528 84.08L516.026 103.206C521.2 99.2842 525.526 94.5282 528.243 88.7606L506.532 78.5315ZM501.528 84.08C499.334 85.743 496.052 87.2447 491.142 88.1253L495.379 111.748C503.067 110.37 510.13 107.675 516.026 103.206L501.528 84.08ZM491.142 88.1253C483.852 89.4326 478.643 88.5041 474.716 86.4079L463.413 107.58C473.101 112.752 484.022 113.785 495.379 111.748L491.142 88.1253ZM474.716 86.4079C471.762 84.8306 469.344 82.0556 468.248 75.9434L444.625 80.1799C446.752 92.0423 452.754 101.889 463.413 107.58L474.716 86.4079ZM468.248 75.9434C467.975 74.422 467.802 72.2521 467.86 69.3009L443.865 68.8223C443.785 72.8316 443.994 76.6617 444.625 80.1799L468.248 75.9434ZM467.86 69.3384C468.053 60.9683 470.451 55.4306 474.134 51.5359L456.697 35.0453C448.137 44.0964 444.167 55.7394 443.866 68.7848L467.86 69.3384ZM474.151 51.5185C478.33 47.0818 484.055 43.9466 492.064 42.5102L487.828 18.8871C475.511 21.096 464.882 26.3554 456.681 35.0626L474.151 51.5185ZM483.256 74.4159C485.031 74.5359 486.609 74.3086 487.592 74.1322L483.356 50.5091C483.329 50.5138 483.434 50.4935 483.641 50.4755C483.829 50.4592 484.268 50.4295 484.875 50.4706L483.256 74.4159ZM487.592 74.1322C495.717 72.675 501.412 67.2819 503.984 59.9192L481.328 52.0027C481.242 52.2475 481.348 51.8141 481.96 51.2722C482.249 51.0166 482.559 50.8201 482.849 50.6854C483.131 50.5544 483.32 50.5155 483.356 50.5091L487.592 74.1322ZM503.984 59.9192C506.005 54.1352 506.3 48.1287 505.101 42.1615L481.571 46.8892C481.986 48.9552 481.827 50.5725 481.328 52.0027L503.984 59.9192ZM505.064 41.9868C504.663 40.1304 503.794 37.0252 501.499 34.2819C498.548 30.7539 493.813 28.6072 488.569 29.5476L492.806 53.1707C491.209 53.4571 489.243 53.4 487.23 52.6207C485.263 51.8594 483.915 50.6668 483.09 49.6806C481.678 47.9927 481.504 46.5836 481.608 47.0639L505.064 41.9868ZM488.569 29.5476C484.864 30.2121 482.296 32.2151 480.812 33.6916C479.293 35.2036 478.187 36.8761 477.388 38.2802L498.248 50.1487C498.438 49.815 498.305 50.1426 497.742 50.7028C497.215 51.2276 495.587 52.6719 492.806 53.1707L488.569 29.5476ZM477.56 37.988C475.596 41.2235 474.376 45.053 473.523 48.738L496.905 54.1495C497.191 52.9121 497.466 51.9896 497.704 51.3298C497.949 50.6511 498.098 50.4058 498.077 50.4408L477.56 37.988ZM473.46 49.0239C472.635 53.0296 472.201 57.4212 472.07 62.108L496.061 62.7785C496.163 59.1006 496.495 56.1592 496.967 53.8637L473.46 49.0239ZM430.07 53.4401C431.804 53.117 432.903 53.0874 433.496 53.1284C434.075 53.1685 433.889 53.2547 433.335 52.9524L444.831 31.8845C438.643 28.5082 431.593 28.7432 425.673 29.8463L430.07 53.4401ZM433.335 52.9524C433.101 52.8246 432.711 52.5299 432.385 52.0611C432.078 51.6194 432.057 51.3514 432.09 51.5337L455.684 47.1371C454.498 40.7707 450.921 35.2076 444.831 31.8845L433.335 52.9524ZM432.09 51.5337C432.223 52.2451 432.227 52.847 432.152 53.3912L455.925 56.6813C456.368 53.4832 456.271 50.2846 455.684 47.1371L432.09 51.5337ZM432.117 53.668L427.551 93.4496L451.394 96.1861L455.96 56.4045L432.117 53.668ZM427.495 94.0893C427.392 95.7852 427.417 97.726 427.791 99.7289L451.384 95.3324C451.41 95.4702 451.424 95.5774 451.432 95.6495C451.44 95.7217 451.442 95.7658 451.443 95.7784C451.443 95.7993 451.439 95.7273 451.45 95.5464L427.495 94.0893ZM427.791 99.7289C428.256 102.226 429.333 105.409 431.87 108.172L449.548 91.9394C450.996 93.517 451.326 95.0164 451.384 95.3324L427.791 99.7289ZM432.387 108.702C433.973 110.228 435.71 111.334 437.292 112.151L448.306 90.8278C448.252 90.7994 448.297 90.819 448.415 90.8999C448.533 90.9803 448.754 91.1441 449.031 91.4103L432.387 108.702ZM436.012 111.385C436.136 111.47 436.136 111.478 436.051 111.407C435.981 111.349 435.709 111.12 435.354 110.719L453.324 94.8104C452.047 93.3688 450.614 92.2984 449.586 91.5932L436.012 111.385ZM436.22 111.602C432.674 108.344 432.65 104.334 432.776 102.998L456.67 105.253C456.912 102.681 456.632 97.763 452.457 93.9281L436.22 111.602ZM432.923 101.942C433.136 100.792 433.613 99.6602 434.324 98.6784C435.01 97.7308 435.743 97.1569 436.229 96.8486L449.074 117.122C452.565 114.91 455.6 111.295 456.522 106.309L432.923 101.942ZM436.229 96.8486C436.528 96.659 436.733 96.5657 436.785 96.5423C436.843 96.5169 436.81 96.5351 436.66 96.5836C436.345 96.686 435.754 96.8454 434.805 97.0221L439.202 120.616C442.182 120.061 445.918 119.122 449.074 117.122L436.229 96.8486ZM434.805 97.0221L406.115 102.368L410.512 125.962L439.202 120.616L434.805 97.0221ZM406.115 102.368C405.585 102.467 405.487 102.439 405.715 102.444C405.916 102.449 406.827 102.488 408.059 103.015L398.63 125.085C403.078 126.985 407.625 126.5 410.512 125.962L406.115 102.368ZM408.664 103.293C409.73 103.821 411.341 104.937 412.517 106.996C413.71 109.084 413.873 111.121 413.745 112.47L389.851 110.216C389.607 112.802 389.969 115.909 391.677 118.899C393.369 121.86 395.811 123.711 398.025 124.806L408.664 103.293ZM413.685 112.988C413.463 114.594 412.856 115.797 412.343 116.545C411.859 117.25 411.444 117.579 411.411 117.606L396.486 98.8106C394.012 100.775 390.657 104.309 389.912 109.698L413.685 112.988ZM411.44 117.583C413.495 115.94 415.371 113.944 416.856 111.54L396.441 98.9222C396.514 98.8045 396.57 98.739 396.585 98.7225C396.599 98.7075 396.565 98.7477 396.457 98.8335L411.44 117.583ZM416.856 111.54C418.924 108.195 419.622 104.479 419.908 101.621L396.027 99.2354C395.999 99.5095 395.97 99.713 395.945 99.8541C395.92 99.9964 395.904 100.055 395.907 100.044C395.909 100.034 395.939 99.9267 396.014 99.7446C396.089 99.5631 396.223 99.2755 396.441 98.9222L416.856 111.54ZM419.897 101.724L424.068 63.3178L400.208 60.7266L396.037 99.1326L419.897 101.724ZM424.025 63.6673C424.222 62.2401 424.387 60.1538 423.961 57.8661L400.367 62.2626C400.236 61.5598 400.226 61.0332 400.229 60.7732C400.233 60.5007 400.254 60.3573 400.252 60.3772L424.025 63.6673ZM423.961 57.8661C423.482 55.2957 422.202 51.6265 418.792 48.8014L403.481 67.2834C401.097 65.3087 400.502 62.9874 400.367 62.2626L423.961 57.8661ZM419.458 49.3968C417.63 47.6374 415.596 46.4852 413.885 45.7074L403.956 67.5575C404.012 67.583 403.926 67.5486 403.743 67.4323C403.563 67.3175 403.223 67.0815 402.814 66.6881L419.458 49.3968ZM414.573 46.0474C414.375 45.9416 414.358 45.9202 414.462 45.9919C414.519 46.0312 414.634 46.1124 414.788 46.2383C414.94 46.3624 415.164 46.5568 415.427 46.8262L398.234 63.5719C399.946 65.3298 401.92 66.4981 403.268 67.2176L414.573 46.0474ZM415.427 46.8262C418.454 49.9338 418.371 53.4693 418.261 54.4934L394.398 51.9249C394.097 54.7207 394.349 59.5827 398.234 63.5719L415.427 46.8262ZM418.299 54.0599C418.18 55.7404 417.63 57.0031 417.183 57.7611C416.758 58.4819 416.381 58.8285 416.364 58.8449C416.332 58.8743 416.481 58.7328 416.921 58.445C417.349 58.1642 417.961 57.8045 418.797 57.3752L407.841 36.022C405.109 37.424 402.312 39.1351 400.006 41.2833C397.834 43.3057 394.741 46.9932 394.36 52.3585L418.299 54.0599ZM418.968 57.286C422.347 55.4832 426.028 54.1932 430.07 53.4401L425.673 29.8463C419.312 31.0316 413.292 33.1118 407.67 36.1112L418.968 57.286ZM433.318 24.0598C433.48 24.0297 433.557 24.0291 433.562 24.0291C433.565 24.029 433.516 24.029 433.431 24.0121C433.345 23.995 433.26 23.9683 433.189 23.938C433.12 23.9083 433.097 23.8894 433.122 23.9065L446.696 4.11432C441.312 0.421858 435.112 -0.687476 428.922 0.465948L433.318 24.0598ZM433.317 24.0377C433.339 24.0524 433.3 24.029 433.227 23.9568C433.152 23.883 433.068 23.7841 432.99 23.6659C432.913 23.5483 432.865 23.4467 432.839 23.3814C432.815 23.3185 432.822 23.3175 432.837 23.4007L456.431 19.0042C455.272 12.7846 451.879 7.51856 446.501 3.98315L433.317 24.0377ZM432.837 23.4007C432.841 23.4182 432.846 23.4486 432.84 23.5218C432.833 23.6011 432.808 23.7884 432.702 24.1023L455.436 31.7943C456.808 27.7365 457.251 23.4045 456.431 19.0042L432.837 23.4007ZM432.588 24.4561C432.532 24.6391 432.438 24.8713 432.038 25.2473L448.459 42.7497C451.752 39.6596 454.205 35.8584 455.549 31.4405L432.588 24.4561ZM432.132 25.1598C432.083 25.2049 432.056 25.2201 432.028 25.2339C431.995 25.2499 431.873 25.3057 431.607 25.3553L436.003 48.9492C440.592 48.094 444.828 46.0846 448.365 42.8372L432.132 25.1598ZM431.607 25.3553C431.458 25.383 431.386 25.3838 431.382 25.3839C431.379 25.3839 431.423 25.3838 431.499 25.3983C431.576 25.4129 431.65 25.4357 431.711 25.4608C431.771 25.4853 431.787 25.4993 431.757 25.4798L418.573 45.5343C423.886 49.0269 429.947 50.0777 436.003 48.9492L431.607 25.3553ZM432.145 25.7459C432.1 25.7135 432.099 25.7069 432.122 25.731C432.146 25.7559 432.173 25.7903 432.197 25.8267C432.22 25.8624 432.221 25.8736 432.209 25.8438C432.197 25.8122 432.164 25.722 432.128 25.5555L408.658 30.5712C409.924 36.4965 413.108 41.6373 418.185 45.2682L432.145 25.7459ZM432.19 25.8651C432.187 25.8519 432.183 25.8303 432.188 25.7731C432.192 25.711 432.212 25.5519 432.3 25.2784L409.46 17.9069C408.189 21.8444 407.807 26.0257 408.596 30.2616L432.19 25.8651ZM432.361 25.0849C432.457 24.7678 432.598 24.5023 432.947 24.1621L416.202 6.96963C413.024 10.0643 410.702 13.8167 409.399 18.1005L432.361 25.0849ZM432.947 24.1621C432.959 24.1504 432.96 24.1512 432.951 24.1577C432.942 24.1642 432.936 24.167 432.939 24.1654C432.943 24.1635 432.969 24.1507 433.024 24.1322C433.081 24.1134 433.176 24.0863 433.318 24.0598L428.922 0.465948C424.175 1.35055 419.79 3.47432 416.201 6.96963L432.947 24.1621ZM380.001 65.4594C382.492 65.0848 383.278 65.6142 383.511 65.7754L397.178 46.047C390.86 41.6703 383.561 40.6542 376.432 41.7262L380.001 65.4594ZM383.812 65.9775C384.043 66.1274 384.171 66.2396 384.231 66.298C384.288 66.3539 384.299 66.3755 384.291 66.363C384.283 66.3498 384.282 66.3436 384.289 66.3634C384.297 66.3858 384.328 66.4728 384.354 66.6492L408.087 63.0804C406.983 55.7383 402.977 49.8036 396.876 45.8449L383.812 65.9775ZM384.354 66.6492C384.48 67.488 384.401 67.8193 384.405 67.7987C384.408 67.7884 384.423 67.7268 384.466 67.638C384.508 67.5486 384.555 67.4798 384.585 67.4409L403.37 82.3792C407.978 76.5848 409.079 69.6734 408.087 63.0804L384.354 66.6492ZM384.585 67.4409C384.572 67.458 384.567 67.4738 384.469 67.5264C384.34 67.5952 383.936 67.78 383.087 67.9076L386.656 91.6408C393.029 90.6825 399.033 87.832 403.37 82.3792L384.585 67.4409ZM383.087 67.9076C382.28 68.029 381.963 67.971 382.007 67.9782C382.037 67.9831 382.154 68.0056 382.331 68.0737C382.511 68.1431 382.718 68.2458 382.928 68.3868L369.561 88.3198C375.013 91.9761 381.199 92.4615 386.656 91.6408L383.087 67.9076ZM383.157 68.5446C383.082 68.4917 383.388 68.6908 383.745 69.2457C384.129 69.8428 384.375 70.5502 384.452 71.2258L360.603 73.9138C361.314 80.2265 364.856 85.0076 369.331 88.162L383.157 68.5446ZM373.105 60.5837C370.335 60.4502 367.364 61.12 364.708 62.8951C362.189 64.5784 360.675 66.7694 359.783 68.5628L381.272 79.2491C380.844 80.1098 379.895 81.6118 378.043 82.8497C376.053 84.1794 373.85 84.6474 371.95 84.5559L373.105 60.5837ZM359.783 68.5627C358.294 71.5556 357.757 75.2035 357.457 77.6925L381.285 80.5635C381.41 79.5251 381.527 78.867 381.607 78.5054C381.645 78.3317 381.658 78.3055 381.631 78.3901C381.61 78.456 381.506 78.7795 381.272 79.2492L359.783 68.5627ZM357.441 77.8336C357.456 77.6985 357.487 77.5755 357.521 77.4828C357.553 77.3936 357.57 77.3813 357.527 77.4485L377.738 90.3911C379.633 87.4325 380.904 84.0808 381.301 80.4223L357.441 77.8336ZM368.542 95.8853C370.791 95.7144 372.424 95.7886 373.551 95.9573C374.677 96.1258 375.079 96.355 375.064 96.3467L386.949 75.4959C380.826 72.0061 373.558 71.4348 366.723 71.9543L368.542 95.8853ZM375.064 96.3467C375.176 96.4101 375.179 96.4259 375.118 96.3717C375.054 96.3144 374.953 96.2104 374.849 96.0599C374.744 95.9087 374.671 95.7619 374.626 95.6451C374.582 95.5322 374.583 95.4925 374.592 95.5582L398.326 91.9894C397.243 84.7904 393.166 79.0394 386.949 75.4959L375.064 96.3467ZM374.592 95.5582C374.634 95.8335 374.645 96.2047 374.545 96.7343L398.124 101.206C398.698 98.1826 398.792 95.0895 398.326 91.9894L374.592 95.5582ZM374.398 97.7327L373.976 101.809L397.848 104.284L398.27 100.208L374.398 97.7327ZM374.231 100.296C373.649 102.767 373.811 104.994 374.039 106.514L397.773 102.945C397.794 103.088 397.833 103.399 397.831 103.844C397.83 104.283 397.789 104.963 397.592 105.797L374.231 100.296ZM374.039 106.514C374.372 108.725 375.449 112.519 379.036 115.379C382.802 118.382 386.99 118.514 389.602 118.121L386.034 94.3879C387.549 94.16 390.87 94.12 393.999 96.6148C396.948 98.9669 397.618 101.916 397.773 102.945L374.039 106.514ZM389.602 118.121C394.49 117.386 398.305 114.483 400.54 110.628L379.778 98.5884C380.249 97.7772 381.037 96.7729 382.26 95.9129C383.504 95.0381 384.836 94.568 386.034 94.3879L389.602 118.121ZM400.473 110.741C400.672 110.408 400.597 110.578 400.285 110.963C400.14 111.143 399.69 111.689 398.955 112.305C398.573 112.625 397.96 113.096 397.126 113.552C396.312 113.997 394.992 114.592 393.253 114.854L389.684 91.1207C386.344 91.623 384.196 93.3602 383.534 93.9149C382.627 94.6758 381.982 95.4287 381.618 95.8792C380.87 96.8048 380.266 97.7662 379.845 98.4747L400.473 110.741ZM393.253 114.854C390.399 115.283 387.689 114.567 385.6 113.229C383.77 112.057 382.804 110.672 382.41 110.036L402.819 97.4064C401.458 95.2075 397.156 89.9972 389.684 91.1207L393.253 114.854ZM382.799 110.624C381.755 109.139 381.486 107.83 381.413 107.347L405.146 103.778C404.846 101.777 404.133 99.2392 402.43 96.8181L382.799 110.624ZM381.482 107.755C381.469 107.684 381.461 107.608 381.46 107.536C381.46 107.465 381.466 107.419 381.468 107.406C381.472 107.376 381.452 107.544 381.265 107.934L402.908 118.307C405.066 113.803 406.069 108.704 405.078 103.37L381.482 107.755ZM381.223 108.022C381.206 108.059 380.858 108.782 379.162 109.922L392.547 129.842C396.808 126.98 400.614 123.195 402.95 118.218L381.223 108.022ZM379.279 109.844C378.186 110.56 376.258 111.391 373.002 111.88L376.571 135.613C382.259 134.758 387.71 133.012 392.43 129.92L379.279 109.844ZM373.002 111.88C369.644 112.385 367.628 111.864 366.286 111.148L354.981 132.318C361.708 135.911 369.127 136.733 376.571 135.613L373.002 111.88ZM366.406 111.212C366.107 111.048 365.939 110.919 365.858 110.848C365.781 110.781 365.758 110.747 365.758 110.746C365.758 110.746 365.741 110.725 365.714 110.654C365.685 110.579 365.629 110.411 365.585 110.115L341.852 113.684C343.079 121.842 347.687 128.317 354.861 132.253L366.406 111.212ZM365.585 110.115C365.587 110.131 365.517 109.615 365.734 108.365L342.091 104.245C341.567 107.248 341.367 110.462 341.852 113.684L365.585 110.115ZM365.639 108.852L367.092 102.162L343.639 97.0672L342.186 103.758L365.639 108.852ZM367.277 101.071C367.474 99.4595 367.738 96.8884 367.37 94.4438L343.637 98.0126C343.604 97.7922 343.586 97.6123 343.575 97.4829C343.564 97.3522 343.56 97.2521 343.558 97.1885C343.556 97.1242 343.556 97.0839 343.556 97.0711C343.556 97.0578 343.557 97.0641 343.555 97.0922C343.553 97.1515 343.546 97.2697 343.53 97.4565C343.514 97.6413 343.489 97.8734 343.455 98.1576L367.277 101.071ZM367.37 94.4438C366.747 90.2986 364.337 85.588 359.101 83.1311L348.905 104.858C347.414 104.158 346.044 103.027 345.045 101.54C344.098 100.131 343.758 98.815 343.637 98.0126L367.37 94.4438ZM359.695 83.4306C355.452 81.1437 351.093 81.5205 348.813 81.8633L352.382 105.597C352.533 105.574 352.248 105.635 351.659 105.589C351.087 105.544 349.812 105.367 348.311 104.558L359.695 83.4306ZM348.813 81.8633L346.282 82.244L349.851 105.977L352.382 105.597L348.813 81.8633ZM336.197 92.3433L333.299 111.807L357.037 115.341L359.935 95.8779L336.197 92.3433ZM333.223 112.427C333.061 114.118 333.019 116.059 333.322 118.074L357.055 114.505C357.076 114.643 357.086 114.751 357.091 114.823C357.097 114.896 357.097 114.94 357.097 114.952C357.097 114.973 357.096 114.901 357.113 114.721L333.223 112.427ZM333.322 118.074C333.699 120.585 334.664 123.804 337.104 126.655L355.338 111.05C356.731 112.677 357.007 114.187 357.055 114.505L333.322 118.074ZM337.602 127.201C339.133 128.782 340.83 129.948 342.383 130.82L354.136 109.895C354.082 109.865 354.128 109.886 354.243 109.971C354.357 110.056 354.573 110.227 354.84 110.503L337.602 127.201ZM341.13 130.01C341.251 130.1 341.251 130.107 341.169 130.034C341.101 129.973 340.837 129.735 340.496 129.322L359.011 114.051C357.786 112.566 356.391 111.446 355.389 110.705L341.13 130.01ZM341.331 130.234C337.901 126.854 338.017 122.845 338.189 121.515L361.99 124.604C362.322 122.042 362.214 117.117 358.176 113.139L341.331 130.234ZM338.373 120.465C338.626 119.322 339.143 118.208 339.888 117.252C340.607 116.329 341.359 115.781 341.856 115.49L353.984 136.2C357.55 134.112 360.709 130.605 361.806 125.654L338.373 120.465ZM341.856 115.49C342.162 115.311 342.369 115.225 342.422 115.203C342.481 115.18 342.447 115.197 342.296 115.24C341.977 115.332 341.381 115.47 340.427 115.614L343.996 139.347C346.993 138.896 350.759 138.088 353.984 136.2L341.856 115.49ZM340.427 115.614L311.567 119.953L315.136 143.687L343.996 139.347L340.427 115.614ZM311.567 119.953C311.034 120.033 310.937 120.002 311.164 120.015C311.365 120.027 312.274 120.098 313.487 120.667L303.292 142.394C307.671 144.449 312.232 144.123 315.136 143.687L311.567 119.953ZM314.082 120.967C315.129 121.531 316.7 122.703 317.804 124.802C318.922 126.93 319.014 128.971 318.839 130.316L295.039 127.227C294.705 129.804 294.958 132.921 296.56 135.969C298.147 138.988 300.523 140.923 302.697 142.095L314.082 120.967ZM318.761 130.831C318.483 132.428 317.834 133.61 317.295 134.339C316.787 135.027 316.361 135.341 316.327 135.366L302.068 116.061C299.527 117.938 296.051 121.352 295.117 126.712L318.761 130.831ZM316.356 135.345C318.468 133.775 320.412 131.846 321.981 129.495L302.019 116.171C302.096 116.056 302.155 115.992 302.171 115.976C302.185 115.962 302.149 116.001 302.039 116.083L316.356 135.345ZM321.981 129.495C324.165 126.224 324.992 122.535 325.378 119.689L301.594 116.47C301.557 116.743 301.521 116.945 301.491 117.085C301.461 117.226 301.443 117.285 301.446 117.274C301.449 117.264 301.483 117.157 301.564 116.978C301.646 116.799 301.789 116.517 302.019 116.171L321.981 129.495ZM325.358 119.83L335.099 53.775L311.356 50.2733L301.614 116.328L325.358 119.83ZM335.05 54.0839C335.297 52.6641 335.535 50.585 335.189 48.284L311.455 51.8528C311.349 51.146 311.357 50.6195 311.37 50.3598C311.383 50.0875 311.409 49.9449 311.406 49.9645L335.05 54.0839ZM335.189 48.284C334.709 45.0967 333.232 41.5622 330.069 38.8267L314.372 56.9818C312.398 55.2754 311.656 53.1837 311.455 51.8528L335.189 48.284ZM330.839 39.5549C329.308 37.9742 327.61 36.808 326.058 35.9362L314.305 56.8611C314.358 56.8913 314.313 56.8701 314.198 56.7851C314.084 56.7006 313.868 56.5293 313.601 56.2536L330.839 39.5549ZM326.201 36.0177C326.069 35.9413 325.964 35.8775 325.882 35.8263C325.8 35.7749 325.749 35.7405 325.723 35.7232C325.698 35.7054 325.708 35.7119 325.749 35.743C325.788 35.7732 325.873 35.8401 325.99 35.9444L310.043 53.8797C311.401 55.0879 312.901 56.0484 314.162 56.7796L326.201 36.0177ZM326.9 36.845C329.816 40.0565 329.61 43.5868 329.464 44.6066L305.706 41.2052C305.308 43.9888 305.389 48.8566 309.133 52.9792L326.9 36.845ZM329.518 44.1746C329.34 45.85 328.746 47.0926 328.273 47.8345C327.823 48.54 327.435 48.8732 327.416 48.889C327.384 48.9173 327.538 48.7812 327.987 48.5088C328.425 48.2432 329.049 47.9051 329.9 47.5053L319.697 25.7821C316.917 27.0876 314.062 28.6999 311.682 30.7661C309.442 32.7114 306.221 36.2884 305.652 41.6371L329.518 44.1746ZM329.9 47.5053C333.399 45.8618 337.189 44.7148 341.322 44.0934L337.753 20.3603C331.421 21.3123 325.386 23.1099 319.697 25.7821L329.9 47.5053ZM341.322 44.0934C343.066 43.8311 344.166 43.84 344.757 43.9017C345.334 43.962 345.146 44.0417 344.603 43.7202L356.828 23.0671C350.761 19.4765 343.707 19.4649 337.753 20.3603L341.322 44.0934ZM344.838 43.8561C344.521 43.6779 344.068 43.3114 343.711 42.7649C343.378 42.2545 343.361 41.9437 343.389 42.1322L367.122 38.5634C366.159 32.1594 362.754 26.3925 356.592 22.9312L344.838 43.8561ZM343.389 42.1322C343.497 42.8479 343.479 43.4496 343.385 43.9907L367.029 48.1101C367.583 44.9295 367.598 41.7294 367.122 38.5634L343.389 42.1322ZM343.338 44.2808L337.732 81.8846L361.469 85.4238L367.076 47.82L343.338 44.2808ZM351.385 95.5208L355.562 94.8927L351.993 71.1595L347.816 71.7876L351.385 95.5208ZM355.562 94.8927C359.792 94.2566 364.166 92.2054 367.252 88.0273L347.947 73.7689C348.542 72.9636 349.312 72.292 350.161 71.8193C350.976 71.3658 351.652 71.2108 351.993 71.1595L355.562 94.8927ZM366.96 88.4074C369.634 85.0738 370.835 81.2463 371.337 77.8352L347.593 74.3392C347.55 74.6321 347.518 74.6491 347.586 74.474C347.658 74.2881 347.845 73.8801 348.24 73.3888L366.96 88.4074ZM371.278 78.1948C372.241 72.8011 373.734 69.604 375.103 67.7976L355.98 53.2961C351.589 59.0868 349.03 66.25 347.651 73.9797L371.278 78.1948ZM375.103 67.7976C375.754 66.9391 376.925 65.9219 380.001 65.4594L376.432 41.7262C368.369 42.9386 361.09 46.5575 355.98 53.2961L375.103 67.7976ZM271.014 86.0085C281.358 85.1009 286.627 86.8145 289.087 88.5797L303.079 69.0801C293.837 62.4493 281.694 60.9792 268.917 62.1003L271.014 86.0085ZM289.162 88.633C292.068 90.6845 293.657 93.2815 294.028 97.513L317.936 95.4154C316.98 84.5158 311.969 75.3565 303.004 69.0269L289.162 88.633ZM294.028 97.513C294.161 99.0271 294.129 101.028 293.806 103.596L317.617 106.598C318.102 102.756 318.251 99.0017 317.936 95.4154L294.028 97.513ZM293.829 103.42C293.079 108.739 291.267 113.328 288.436 117.374L308.102 131.131C313.187 123.861 316.337 115.679 317.594 106.773L293.829 103.42ZM288.492 117.296C285.601 121.359 281.882 124.691 277.172 127.315L288.85 148.282C296.553 143.991 303.007 138.293 308.047 131.21L288.492 117.296ZM277.236 127.279C272.671 129.785 267.494 131.354 261.547 131.875L263.645 155.784C272.658 154.993 281.091 152.541 288.785 148.317L277.236 127.279ZM261.547 131.875C250.936 132.807 245.276 131.123 242.487 129.216L228.939 149.026C238.362 155.471 250.624 156.926 263.645 155.784L261.547 131.875ZM242.648 129.327C239.696 127.237 237.996 124.501 237.596 119.939L213.688 122.037C214.66 133.116 219.675 142.469 228.779 148.915L242.648 129.327ZM237.596 119.939C237.453 118.308 237.483 116.199 237.804 113.537L213.976 110.664C213.504 114.582 213.369 118.397 213.688 122.037L237.596 119.939ZM237.753 113.91C238.493 109.058 240.283 104.75 243.181 100.826L223.873 86.5705C218.655 93.6378 215.354 101.598 214.027 110.29L237.753 113.91ZM243.173 100.837C246.224 96.7142 250.069 93.3873 254.852 90.8213L243.506 69.6725C235.69 73.8655 229.101 79.5063 223.881 86.5601L243.173 100.837ZM254.917 90.786C259.795 88.1303 265.12 86.5256 271.014 86.0085L268.917 62.1003C259.85 62.8958 251.317 65.4195 243.441 69.7077L254.917 90.786ZM269.53 73.4823C264.863 73.8917 261.485 76.333 259.398 78.4345C257.319 80.5273 255.776 83.0035 254.599 85.2886L275.933 96.2818C276.512 95.1577 276.733 95.0378 276.425 95.3476C276.109 95.6661 274.509 97.1376 271.627 97.3904L269.53 73.4823ZM254.56 85.365C252.097 90.2293 250.03 97.8385 248.096 106.866L271.564 111.893C273.52 102.762 275.076 97.9747 275.972 96.2054L254.56 85.365ZM248.096 106.866C246.176 115.831 244.938 123.807 245.429 129.403L269.337 127.305C269.202 125.761 269.595 121.086 271.564 111.893L248.096 106.866ZM245.429 129.403C245.62 131.575 246.229 136.853 250.306 140.762L266.917 123.44C268.505 124.963 269.065 126.492 269.216 126.956C269.39 127.487 269.37 127.68 269.337 127.305L245.429 129.403ZM250.9 141.295C254.488 144.304 258.688 145.04 262.161 144.735L260.064 120.827C260.709 120.77 261.694 120.779 262.87 121.098C264.09 121.43 265.285 122.036 266.323 122.906L250.9 141.295ZM261.023 144.781C266.084 144.818 269.867 142.355 272.21 140.016C274.445 137.785 275.974 135.121 277.063 132.791L255.322 122.628C254.824 123.692 254.713 123.571 255.255 123.031C255.904 122.382 257.941 120.757 261.202 120.781L261.023 144.781ZM276.962 133.002C279.367 128.109 281.485 120.243 283.536 110.728L260.074 105.672C257.985 115.366 256.362 120.506 255.423 122.417L276.962 133.002ZM283.511 110.84C285.432 102.322 286.641 94.5993 286.134 88.8257L262.226 90.9234C262.376 92.6304 262.001 97.1249 260.099 105.56L283.511 110.84ZM286.134 88.8257C285.936 86.5667 285.284 81.4438 281.269 77.5939L264.658 94.9162C263.138 93.4588 262.564 91.9909 262.384 91.4553C262.19 90.8778 262.2 90.6249 262.226 90.9234L286.134 88.8257ZM281.897 78.2436C278.288 74.2189 273.466 73.1369 269.53 73.4823L271.627 97.3904C270.822 97.4611 269.541 97.4379 268.043 96.9237C266.473 96.3848 265.089 95.4487 264.029 94.2666L281.897 78.2436ZM176.564 82.0422C187.293 81.0605 194.257 82.9905 198.839 86.1954L212.596 66.5292C201.943 59.0778 188.742 56.8277 174.377 58.142L176.564 82.0422ZM198.921 86.252C202.963 89.0299 205.938 93.5944 206.71 102.029L230.61 99.842C229.341 85.9694 223.688 74.152 212.514 66.4727L198.921 86.252ZM206.71 102.029C207.083 106.112 206.891 110.816 205.992 116.209L229.664 120.157C230.84 113.109 231.202 106.315 230.61 99.842L206.71 102.029ZM206.002 116.147C204.275 126.178 201.047 134.432 196.549 141.177L216.516 154.493C223.144 144.555 227.447 133.041 229.654 120.219L206.002 116.147ZM196.549 141.177C191.963 148.054 186.374 153.301 179.754 157.111L191.724 177.912C201.703 172.17 209.976 164.299 216.516 154.493L196.549 141.177ZM179.754 157.111C173.051 160.968 165.509 163.337 156.96 164.12L159.147 188.02C170.913 186.943 181.828 183.607 191.724 177.912L179.754 157.111ZM156.96 164.12C146.314 165.094 139.362 163.204 134.766 160.045L121.173 179.825C131.793 187.124 144.897 189.324 159.147 188.02L156.96 164.12ZM134.848 160.102C130.719 157.214 127.734 152.547 126.963 144.119L103.063 146.306C104.333 160.185 109.986 172 121.091 179.768L134.848 160.102ZM126.963 144.119C126.615 140.318 126.818 135.467 127.799 129.425L104.108 125.581C102.906 132.994 102.481 139.95 103.063 146.306L126.963 144.119ZM127.792 129.466C129.435 119.555 132.576 111.432 136.971 104.82L116.984 91.534C110.434 101.388 106.225 112.816 104.115 125.541L127.792 129.466ZM136.961 104.835C141.552 97.9516 147.084 92.7812 153.567 89.0955L141.704 68.232C131.769 73.881 123.529 81.7195 116.994 91.5189L136.961 104.835ZM153.621 89.0645C160.309 85.2156 167.897 82.8351 176.564 82.0422L174.377 58.142C162.529 59.226 151.561 62.5598 141.65 68.263L153.621 89.0645ZM173.027 73.0268C166.444 73.6292 161.075 76.9185 157.159 81.6231L175.606 96.9769C175.749 96.8048 175.841 96.7211 175.872 96.6947C175.901 96.6701 175.877 96.6946 175.798 96.7388C175.717 96.784 175.61 96.8318 175.488 96.8694C175.367 96.9068 175.27 96.9219 175.214 96.927L173.027 73.0268ZM157.159 81.6231C153.558 85.9498 150.957 91.7822 148.902 97.9794L171.682 105.534C173.405 100.34 174.864 97.8675 175.606 96.9769L157.159 81.6231ZM148.869 98.0798C146.836 104.396 144.924 112.731 143.081 122.845L166.693 127.147C168.46 117.449 170.151 110.292 171.715 105.434L148.869 98.0798ZM143.096 122.764C140.422 136.891 138.941 148.273 139.599 155.465L163.5 153.279C163.192 149.915 163.936 141.713 166.678 127.227L143.096 122.764ZM139.599 155.465C139.964 159.449 141.08 164.947 145.087 169.186L162.529 152.701C163.39 153.612 163.655 154.374 163.675 154.431C163.691 154.477 163.665 154.414 163.625 154.21C163.585 154.007 163.538 153.702 163.5 153.279L139.599 155.465ZM145.087 169.186C149.652 174.017 155.63 174.936 160.32 174.507L158.134 150.606C158.061 150.613 158.603 150.548 159.503 150.816C160.498 151.112 161.606 151.724 162.529 152.701L145.087 169.186ZM160.32 174.507C166.904 173.904 172.273 170.615 176.189 165.91L157.742 150.557C157.599 150.729 157.507 150.812 157.476 150.839C157.447 150.863 157.471 150.839 157.55 150.795C157.631 150.749 157.737 150.702 157.86 150.664C157.981 150.627 158.078 150.612 158.134 150.606L160.32 174.507ZM176.343 165.721C179.829 161.355 182.351 155.614 184.329 149.467L161.484 142.114C159.865 147.141 158.426 149.696 157.588 150.746L176.343 165.721ZM184.329 149.467C186.334 143.241 188.299 135.074 190.26 125.166L166.717 120.507C164.832 130.03 163.076 137.166 161.484 142.114L184.329 149.467ZM190.285 125.034C192.895 111.025 194.293 99.6686 193.613 92.2312L169.713 94.4178C170.053 98.1339 169.334 106.452 166.691 120.639L190.285 125.034ZM193.613 92.2312C193.249 88.2561 192.161 82.6443 188.112 78.3608L170.67 94.8463C170.212 94.3618 169.922 93.9207 169.752 93.617C169.584 93.3172 169.517 93.1242 169.508 93.0968C169.498 93.0682 169.53 93.1551 169.575 93.3889C169.619 93.6205 169.671 93.9579 169.713 94.4178L193.613 92.2312ZM188.112 78.3608C183.653 73.6429 177.821 72.5883 173.027 73.0268L175.214 96.927C175.177 96.9305 174.561 96.984 173.617 96.6927C172.586 96.3745 171.527 95.7527 170.67 94.8463L188.112 78.3608ZM95 133C95 153.558 81.0377 167 67.5 167V191C97.5928 191 119 163.252 119 133H95ZM67.5 167C53.9623 167 40 153.558 40 133H16C16 163.252 37.4072 191 67.5 191V167ZM40 133C40 112.442 53.9623 99.0001 67.5 99.0001V75.0001C37.4072 75.0001 16 102.748 16 133H40ZM67.5 99.0001C81.0377 99.0001 95 112.442 95 133H119C119 102.748 97.5928 75.0001 67.5 75.0001V99.0001ZM68.2405 184.844C60.306 186.011 53.3627 185.543 47.2237 183.728L40.4208 206.744C50.329 209.673 60.828 210.192 71.731 208.589L68.2405 184.844ZM47.2237 183.728C41.2681 181.968 36.4421 178.924 32.486 174.539L14.6654 190.614C21.6575 198.365 30.3293 203.761 40.4208 206.744L47.2237 183.728ZM32.6384 174.711C29.0239 170.546 26.4019 164.879 25.2541 157.071L1.50927 160.562C3.19656 172.04 7.37062 182.213 14.5131 190.442L32.6384 174.711ZM25.2541 157.071C24.4672 151.718 24.5057 145.454 25.5727 138.172L1.8263 134.692C0.491581 143.801 0.318158 152.459 1.50927 160.562L25.2541 157.071ZM25.5619 138.244C27.9954 122.315 33.2103 111.863 40.0321 105.338L23.4433 87.9938C11.5851 99.3358 4.77443 115.394 1.83714 134.62L25.5619 138.244ZM40.0936 105.278C47.7653 97.8356 56.1077 93.6999 65.2967 92.3491L61.8062 68.6042C47.224 70.7479 34.3573 77.4049 23.3818 88.053L40.0936 105.278ZM65.2967 92.3491C70.5214 91.581 74.803 91.7483 78.3084 92.5423L83.61 69.1352C76.6876 67.5673 69.3641 67.4932 61.8062 68.6042L65.2967 92.3491ZM78.3084 92.5423C82.1258 93.4069 85.7928 94.9347 89.348 97.199L102.241 76.9559C96.4434 73.2638 90.2203 70.6324 83.61 69.1352L78.3084 92.5423ZM104.461 95.3775L108.483 91.1779L91.1497 74.5778L87.1277 78.7774L104.461 95.3775ZM108.483 91.1779C110.907 88.647 112.407 87.4569 113.085 87.028L100.251 66.7473C97.1561 68.7059 94.0885 71.5092 91.1497 74.5778L108.483 91.1779ZM112.884 87.1524C113.364 86.8614 114.1 86.5495 115.279 86.3761L111.789 62.6313C107.811 63.2161 103.969 64.4935 100.452 66.6229L112.884 87.1524ZM115.279 86.3761C115.827 86.2955 116.014 86.3315 115.921 86.3201C115.869 86.3137 115.745 86.2941 115.564 86.2394C115.382 86.1841 115.161 86.0984 114.92 85.9709L126.147 64.7588C121.367 62.2284 116.259 61.9741 111.789 62.6313L115.279 86.3761ZM114.92 85.9709C114.173 85.5752 113.365 84.9063 112.751 83.9766C112.166 83.0926 112.011 82.3613 111.976 82.1214L135.72 78.6308C134.901 73.0552 131.861 67.7827 126.147 64.7588L114.92 85.9709ZM111.976 82.1214C111.96 82.0142 111.956 81.9188 111.959 81.8443C111.961 81.771 111.969 81.7398 111.965 81.7581L135.473 86.5924C136.004 84.0114 136.118 81.3345 135.72 78.6308L111.976 82.1214ZM111.955 81.8066L106.393 109.429L129.921 114.166L135.483 86.5438L111.955 81.8066ZM106.342 109.699C106.163 110.708 105.981 111.259 105.895 111.475C105.805 111.702 105.902 111.357 106.396 110.797L124.398 126.669C127.805 122.804 129.253 117.945 129.972 113.897L106.342 109.699ZM106.088 111.161C106.848 110.226 107.625 109.78 107.98 109.615C108.295 109.469 108.275 109.541 107.7 109.626L111.191 133.37C115.426 132.748 120.853 131.042 124.706 126.306L106.088 111.161ZM107.7 109.626C107.635 109.635 107.884 109.593 108.314 109.703C108.758 109.816 109.07 110.01 109.201 110.113L94.3352 128.954C99.2724 132.85 105.193 134.252 111.191 133.37L107.7 109.626ZM109.725 110.551C108.851 109.777 106.956 107.594 103.983 103.082L83.9422 116.286C87.1624 121.174 90.4707 125.557 93.8111 128.516L109.725 110.551ZM103.743 102.731C100.315 97.9092 96.6556 93.2867 93.0313 90.5914L78.7093 109.85C78.6192 109.783 79.099 110.15 80.22 111.461C81.2599 112.677 82.5754 114.377 84.1828 116.638L103.743 102.731ZM93.0313 90.5914C87.7265 86.6464 81.5708 86.1462 76.3537 86.9131L79.8442 110.658C80.4761 110.565 80.5769 110.637 80.3016 110.586C80.154 110.559 79.9165 110.499 79.622 110.375C79.3237 110.248 79.011 110.074 78.7093 109.85L93.0313 90.5914ZM76.3537 86.9131C66.3023 88.3907 59.7138 95.8234 55.5097 103.623L76.6358 115.011C77.8905 112.683 78.9295 111.496 79.55 110.953C80.0787 110.49 80.151 110.613 79.8442 110.658L76.3537 86.9131ZM55.5643 103.522C51.1363 111.553 48.2385 122.191 46.339 134.605L70.0628 138.235C71.7856 126.976 74.1358 119.546 76.5811 115.111L55.5643 103.522ZM46.3372 134.616C44.7323 145.172 44.2854 154.657 45.4664 162.691L69.2112 159.201C68.5131 154.452 68.641 147.586 70.0645 138.223L46.3372 134.616ZM45.4664 162.691C46.462 169.464 48.7561 176.536 53.9925 181.664L70.7851 164.517C70.8999 164.63 70.6618 164.45 70.2996 163.579C69.9317 162.695 69.5184 161.291 69.2112 159.201L45.4664 162.691ZM54.1636 181.828C59.497 186.849 66.2802 188.771 73.3053 187.739L69.8147 163.994C69.6607 164.016 69.6244 164.007 69.6855 164.011C69.7512 164.015 69.8822 164.031 70.0522 164.082C70.2235 164.134 70.3755 164.204 70.4931 164.274C70.6075 164.341 70.6457 164.383 70.614 164.353L54.1636 181.828ZM73.3053 187.739C80.3219 186.707 86.9745 184.118 92.2298 179.156L75.7534 161.705C74.9733 162.441 73.3381 163.476 69.8147 163.994L73.3053 187.739ZM92.0952 179.281C96.1343 175.583 99.8174 171.042 103.211 165.869L83.1454 152.703C80.55 156.658 78.1085 159.547 75.888 161.58L92.0952 179.281ZM103.137 165.981C104.931 163.312 106.093 161.805 106.711 161.116L88.8281 145.109C87.0839 147.058 85.1854 149.667 83.2195 152.591L103.137 165.981ZM106.771 161.048C106.71 161.117 106.432 161.413 105.89 161.734C105.32 162.069 104.598 162.347 103.784 162.467L100.293 138.722C95.3423 139.45 91.4991 142.079 88.7682 145.176L106.771 161.048ZM103.784 162.467C102.763 162.617 102.032 162.455 101.756 162.371C101.522 162.299 101.673 162.304 102.23 162.675L115.52 142.69C111.702 140.152 106.404 137.824 100.293 138.722L103.784 162.467ZM102.23 162.675C102.68 162.974 102.489 162.941 102.116 162.43C101.681 161.836 101.139 160.773 101.01 159.352L124.912 157.184C124.263 150.028 119.556 145.375 115.52 142.69L102.23 162.675ZM101.18 160.55C100.969 159.465 101.07 158.75 101.087 158.638C101.107 158.503 101.097 158.661 100.914 159.175C100.537 160.238 99.7323 161.979 98.242 164.514L118.932 176.676C120.832 173.443 122.452 170.246 123.533 167.2C124.512 164.439 125.588 160.353 124.742 155.985L101.18 160.55ZM98.1618 164.652C95.8407 168.724 92.0401 173.081 86.2618 177.598L101.042 196.507C108.62 190.583 114.777 183.968 119.012 176.538L98.1618 164.652ZM86.3101 177.56C81.5411 181.249 75.6389 183.757 68.2405 184.844L71.731 208.589C82.7217 206.974 92.5968 203.039 100.993 196.544L86.3101 177.56Z" fill="#FF87A4" mask="url(#path-1-outside-1_105_15)"/>
<g filter="url(#filter0_d_105_15)">
<path d="M230.15 142.451C234.764 141.75 238.856 141.812 242.428 142.638C246.038 143.411 248.881 144.725 250.957 146.581C253.079 148.43 254.322 150.553 254.687 152.953C254.82 153.829 254.819 154.75 254.682 155.715C254.331 157.751 253.478 159.438 252.124 160.777C250.77 162.115 248.594 163.485 245.597 164.884C242.593 166.238 237.933 168.032 231.617 170.266C227.808 171.601 224.957 172.718 223.064 173.62C221.21 174.468 219.941 175.275 219.254 176.04C218.614 176.798 218.325 177.692 218.387 178.721L238.319 175.691C241.087 175.27 243.13 174.582 244.448 173.626C245.766 172.671 246.953 171.475 248.009 170.04C248.472 169.356 248.847 168.874 249.135 168.595C249.462 168.262 249.856 168.06 250.317 167.99C251.148 167.864 251.997 168.325 252.864 169.373C253.725 170.375 254.288 171.753 254.555 173.506C254.73 174.659 254.722 176.006 254.531 177.545C254.057 180.638 252.716 182.99 250.506 184.6C248.296 186.211 244.769 187.384 239.925 188.121L215.495 191.834C214.019 192.059 212.725 191.618 211.613 190.513C210.547 189.4 209.853 187.783 209.53 185.661C209.291 184.092 209.309 182.343 209.582 180.413C210.067 177.082 211.454 174.252 213.743 171.921C216.025 169.545 219.417 167.33 223.92 165.276C226.917 163.877 229.202 162.609 230.776 161.473C232.343 160.291 233.429 159.205 234.034 158.216C234.632 157.181 235.036 155.963 235.248 154.562C235.339 153.604 235.338 152.826 235.247 152.226C235.051 150.934 234.501 149.956 233.597 149.29C232.694 148.625 231.573 148.395 230.235 148.598C229.866 148.654 229.234 148.844 228.339 149.169C228.428 149.439 228.514 149.851 228.598 150.404C229.075 153.542 228.487 156.039 226.834 157.895C225.18 159.751 222.924 160.896 220.063 161.331C217.941 161.654 216.173 161.356 214.759 160.438C213.345 159.52 212.494 158.116 212.206 156.224C212.066 155.301 212.055 154.453 212.174 153.68C212.59 150.832 214.377 148.46 217.535 146.563C220.686 144.621 224.891 143.25 230.15 142.451Z" fill="white"/>
<path d="M217.141 164.882C214.812 166.298 212.827 167.825 211.232 169.483C208.414 172.358 206.706 175.873 206.118 179.909L206.116 179.923C205.806 182.116 205.77 184.215 206.07 186.187C206.459 188.75 207.359 191.133 209.086 192.934L209.115 192.965L209.145 192.995C210.998 194.836 213.386 195.695 216.021 195.294L240.451 191.581C245.476 190.817 249.674 189.538 252.567 187.429C255.641 185.189 257.398 181.945 257.991 178.075L257.999 178.026L258.005 177.976C258.223 176.216 258.251 174.535 258.015 172.98C257.684 170.805 256.938 168.756 255.541 167.118C254.858 166.297 253.89 165.393 252.658 164.881C253.377 164.36 254.022 163.822 254.585 163.266C256.502 161.37 257.667 159 258.131 156.31L258.14 156.258L258.148 156.205C258.327 154.936 258.337 153.671 258.147 152.427C257.64 149.086 255.905 146.255 253.273 143.956C250.628 141.598 247.186 140.081 243.188 139.221C239.093 138.279 234.55 138.242 229.624 138.991C224.096 139.831 219.399 141.308 215.716 143.573C211.944 145.843 209.324 149.009 208.712 153.162C208.533 154.341 208.563 155.547 208.746 156.75C209.161 159.482 210.483 161.835 212.853 163.374C214.179 164.235 215.63 164.711 217.141 164.882ZM235.579 172.567C238.908 171.364 241.728 170.293 244.029 169.356C243.505 169.905 242.96 170.382 242.393 170.793C241.744 171.263 240.353 171.841 237.793 172.231L235.579 172.567Z" stroke="#E02955" stroke-width="7"/>
</g>
<path d="M381.573 230.528C377.663 231.205 374.295 230.326 371.471 227.892C368.647 225.458 366.836 221.939 366.039 217.336C365.166 212.291 365.509 207.328 367.068 202.446C368.615 197.502 371.078 193.341 374.455 189.964C377.885 186.512 381.775 184.41 386.127 183.657C387.514 183.417 388.478 183.543 389.017 184.034C389.609 184.451 390.183 185.326 390.738 186.659C392.019 186.177 393.384 185.811 394.835 185.56C397.925 185.025 399.661 185.862 400.043 188.069C400.272 189.393 400.345 192.628 400.261 197.774C400.066 205.277 400.213 210.447 400.704 213.285C400.868 214.231 401.22 214.95 401.76 215.441C402.362 215.921 403.042 216.096 403.799 215.965C404.997 215.757 406.316 214.75 407.757 212.942C409.187 211.07 411.052 208.149 413.353 204.179C413.957 203.165 414.732 202.576 415.678 202.413C416.498 202.271 417.194 202.54 417.766 203.22C418.402 203.89 418.834 204.887 419.063 206.211C419.5 208.734 419.239 210.792 418.281 212.387C416.252 216.051 413.978 219.237 411.459 221.946C408.94 224.655 406.325 226.245 403.613 226.714C401.532 227.074 399.488 226.713 397.483 225.631C395.529 224.476 393.898 222.744 392.589 220.438C390.227 226.303 386.554 229.666 381.573 230.528ZM383.325 220.385C384.712 220.145 385.894 219.096 386.872 217.238C387.849 215.38 388.387 213.046 388.486 210.236L388.973 192.225C386.336 192.747 384.051 194.181 382.119 196.529C380.239 198.803 378.91 201.631 378.131 205.013C377.353 208.396 377.269 211.852 377.88 215.384C378.218 217.339 378.848 218.724 379.768 219.539C380.752 220.343 381.937 220.625 383.325 220.385Z" fill="#E02955"/>
<path d="M465.314 193.823C466.134 193.681 466.83 193.95 467.402 194.631C468.038 195.3 468.47 196.297 468.699 197.621C469.136 200.144 468.875 202.202 467.917 203.797C465.679 207.757 463.29 211.028 460.749 213.611C458.208 216.194 454.952 217.83 450.979 218.517C446.123 219.357 441.973 218.647 438.529 216.385C435.085 214.123 432.964 210.69 432.168 206.087C431.742 203.627 432.698 201.643 435.035 200.135C437.602 198.456 439.37 196.851 440.339 195.32C441.297 193.725 441.607 191.95 441.269 189.995C441.072 188.86 440.673 188.052 440.07 187.572C439.53 187.081 438.914 186.895 438.22 187.015C436.517 187.31 434.838 188.867 433.183 191.687C431.591 194.495 430.25 198.007 429.161 202.223C428.061 206.375 427.361 210.588 427.061 214.862C426.88 217.946 426.41 220.106 425.649 221.342C424.941 222.503 423.609 223.253 421.655 223.592C419.7 223.93 418.129 223.487 416.943 222.264C415.809 220.966 414.828 218.863 414 215.953C413.172 213.044 412.261 208.72 411.268 202.981C409.587 193.269 408.813 182.979 408.945 172.109C409.141 161.228 410.546 151.892 413.159 144.1C415.825 136.234 419.869 131.832 425.293 130.894C428.194 130.392 430.745 131.249 432.948 133.466C435.202 135.609 436.673 138.667 437.361 142.64C438.463 149.009 437.748 155.953 435.217 163.47C432.675 170.925 428.002 179.95 421.197 190.546C421.575 193.858 422.064 197.248 422.665 200.716C424.327 192.31 426.808 186.002 430.107 181.794C433.395 177.523 436.741 175.093 440.147 174.503C443.3 173.958 446.008 174.593 448.271 176.41C450.597 178.216 452.033 180.695 452.578 183.849C453.179 187.317 452.847 190.654 451.583 193.861C450.319 197.067 447.74 200.177 443.844 203.189C444.391 204.848 445.388 206.105 446.835 206.958C448.334 207.738 449.998 207.97 451.827 207.653C453.782 207.315 455.542 206.231 457.109 204.401C458.676 202.571 460.636 199.634 462.989 195.589C463.593 194.575 464.368 193.987 465.314 193.823ZM424.927 140.602C423.792 140.799 422.814 142.657 421.994 146.176C421.164 149.632 420.566 154.25 420.202 160.028C419.891 165.733 419.887 171.904 420.191 178.541C423.304 173.261 425.653 167.691 427.237 161.831C428.884 155.96 429.325 150.818 428.561 146.403C428.212 144.385 427.724 142.879 427.097 141.883C426.47 140.887 425.747 140.46 424.927 140.602Z" fill="#E02955"/>
<path d="M502.526 187.383C503.346 187.241 504.042 187.511 504.614 188.191C505.25 188.86 505.682 189.857 505.911 191.182C506.348 193.704 506.087 195.763 505.129 197.357C503.287 200.599 500.429 203.789 496.555 206.928C492.745 210.055 488.412 212.039 483.556 212.879C476.934 214.025 471.484 213.117 467.204 210.156C462.924 207.194 460.244 202.592 459.164 196.349C458.411 191.997 458.627 187.803 459.812 183.766C460.986 179.666 462.99 176.234 465.824 173.47C468.721 170.695 472.22 168.953 476.319 168.244C479.976 167.611 483.1 168.207 485.689 170.032C488.267 171.794 489.878 174.536 490.522 178.256C491.275 182.608 490.348 186.633 487.74 190.332C485.185 193.956 480.345 197.327 473.22 200.444C475.299 203.072 478.545 204.004 482.959 203.24C485.797 202.749 488.844 201.215 492.101 198.638C495.409 195.987 498.109 192.824 500.201 189.149C500.805 188.136 501.58 187.547 502.526 187.383ZM476.315 177.792C473.981 178.196 472.23 179.896 471.059 182.891C469.952 185.876 469.731 189.291 470.397 193.138L470.43 193.327C473.998 191.801 476.701 189.969 478.539 187.832C480.378 185.695 481.095 183.46 480.692 181.127C480.484 179.929 479.974 179.043 479.16 178.469C478.398 177.821 477.45 177.596 476.315 177.792Z" fill="#E02955"/>
<path d="M507.921 208.663C505.525 209.078 503.604 208.111 502.158 205.763C500.776 203.404 499.605 199.45 498.644 193.901C497.225 185.702 497.044 177.712 498.101 169.93C498.352 168.003 499.037 166.521 500.156 165.482C501.328 164.37 503.08 163.612 505.414 163.209C506.675 162.99 507.585 162.995 508.144 163.223C508.703 163.451 509.059 164.007 509.212 164.89C509.387 165.899 509.306 168.251 508.972 171.946C508.778 174.578 508.655 176.872 508.604 178.829C508.553 180.787 508.642 183.175 508.87 185.993C510.012 180.21 511.581 175.391 513.578 171.539C515.574 167.686 517.676 164.821 519.885 162.945C522.156 161.058 524.333 159.935 526.414 159.575C530.513 158.865 532.917 160.56 533.626 164.659C533.768 165.479 533.828 167.515 533.806 170.766C533.738 173.376 533.759 174.996 533.868 175.627C534.25 177.834 535.229 178.801 536.806 178.528C538.571 178.222 540.602 176.442 542.896 173.187C543.574 172.226 544.355 171.668 545.237 171.516C546.057 171.374 546.753 171.643 547.326 172.323C547.95 172.93 548.366 173.832 548.574 175.03C548.977 177.363 548.663 179.301 547.631 180.844C546.182 182.978 544.374 184.915 542.207 186.654C540.091 188.319 537.71 189.381 535.061 189.839C531.719 190.418 529.017 190.008 526.957 188.611C524.96 187.203 523.71 185.049 523.208 182.148C523.044 181.202 522.975 180.24 523.001 179.261C522.908 177.978 522.824 177.116 522.748 176.674C522.573 175.665 522.139 175.221 521.445 175.341C520.499 175.504 519.424 176.795 518.218 179.212C517.065 181.555 516.031 184.591 515.118 188.322C514.205 192.052 513.608 195.923 513.328 199.933C513.147 203.017 512.677 205.177 511.916 206.413C511.208 207.574 509.876 208.325 507.921 208.663Z" fill="#E02955"/>
<path d="M569.65 152.092C571.101 151.841 572.143 151.856 572.776 152.136C573.409 152.416 573.802 152.998 573.954 153.88C574.216 155.394 574.33 160.928 574.294 170.482C574.383 179.624 574.442 185.038 574.474 186.721C574.945 203.332 573.95 216.722 571.488 226.89C569.026 237.059 564.389 242.733 557.579 243.911C554.363 244.468 551.571 243.912 549.204 242.243C546.847 240.637 545.391 238.226 544.834 235.01C544.321 232.046 544.46 228.905 545.249 225.585C546.102 222.255 548.008 218.256 550.967 213.587C554 208.97 558.443 203.492 564.296 197.153L564.203 194.928C564.241 192.519 564.167 189.089 563.981 184.64C563.506 189.398 562.34 193.172 560.485 195.962C558.618 198.688 556.424 200.269 553.901 200.706C551.064 201.197 548.507 200.308 546.23 198.039C544.006 195.696 542.556 192.569 541.879 188.659C541.061 183.93 540.628 179.555 540.582 175.536C540.525 171.454 540.84 167.08 541.527 162.415C541.83 160.414 542.478 158.905 543.471 157.889C544.465 156.873 546.191 156.152 548.651 155.726C550.038 155.486 551.022 155.543 551.603 155.897C552.247 156.241 552.645 156.854 552.798 157.737C552.885 158.241 552.833 160.004 552.642 163.025C552.415 165.467 552.276 167.667 552.225 169.624C552.168 172.297 552.157 174.865 552.194 177.326C552.219 179.725 552.363 181.681 552.625 183.195C553.039 185.591 553.909 186.675 555.233 186.446C556.179 186.282 557.182 185.134 558.242 183.002C559.365 180.859 560.382 177.728 561.293 173.608C562.267 169.478 563.025 164.475 563.567 158.601C563.744 156.622 564.266 155.135 565.134 154.14C566.064 153.135 567.569 152.452 569.65 152.092ZM557.031 234.556C558.608 234.283 560.057 232.149 561.379 228.153C562.701 224.157 563.603 217.733 564.085 208.881C559.938 213.82 557.05 218.152 555.422 221.877C553.867 225.653 553.308 228.802 553.744 231.325C553.93 232.397 554.272 233.247 554.77 233.875C555.332 234.493 556.085 234.719 557.031 234.556Z" fill="#E02955"/>
<path d="M372.162 168.91C373.418 176.054 371.983 182.674 367.857 188.772C363.716 194.785 357.012 199.777 347.746 203.746C353.208 204.258 357.572 205.916 360.838 208.721C364.089 211.442 366.084 214.903 366.823 219.105C367.991 225.745 366.902 231.871 363.558 237.485C360.297 243.084 354.911 247.93 347.4 252.023C339.874 256.033 330.48 259.028 319.218 261.009C315.016 261.748 311.632 262.213 309.066 262.404C309.396 264.772 308.698 266.714 306.972 268.231C305.246 269.748 302.87 270.772 299.844 271.304C296.819 271.836 294.6 271.533 293.186 270.396C291.857 269.243 291.048 267.349 290.758 264.714C289.445 252.815 288.75 240.244 288.674 227.001C288.583 213.674 289.161 200.706 290.409 188.097C290.628 185.892 291.546 184.214 293.163 183.064C294.78 181.913 297.017 181.086 299.875 180.583C305.002 179.682 307.816 180.66 308.319 183.517C308.526 184.694 308.51 186.083 308.272 187.684C307.24 194.624 306.621 203.917 306.417 215.563C306.197 227.125 306.52 238.072 307.384 248.404C311.477 248.031 314.784 247.622 317.306 247.179C329.072 245.11 337.39 241.914 342.262 237.591C347.203 233.17 349.208 228.312 348.277 223.017C347.626 219.319 345.482 216.49 341.845 214.531C338.292 212.556 332.796 212.093 325.356 213.142C323.66 213.354 322.409 213.14 321.604 212.502C320.799 211.864 320.248 210.705 319.953 209.024C319.524 206.586 319.681 204.523 320.423 202.833C321.166 201.142 322.874 200.019 325.549 199.462C331.486 198.244 336.71 196.416 341.22 193.976C345.813 191.522 349.246 188.623 351.517 185.277C353.773 181.848 354.561 178.2 353.881 174.334C353.024 169.46 349.956 166.057 344.678 164.126C339.384 162.111 331.779 161.976 321.862 163.72C312.87 165.302 304.378 168.008 296.388 171.839C288.382 175.587 281.749 179.742 276.486 184.307C274.078 186.377 271.949 187.574 270.1 187.899C268.587 188.165 267.322 187.868 266.304 187.007C265.356 186.048 264.741 184.77 264.46 183.173C264.091 181.072 264.193 179.191 264.767 177.53C265.426 175.855 267.266 173.755 270.288 171.231C276.638 165.955 284.362 161.348 293.46 157.408C302.558 153.469 312.065 150.627 321.982 148.883C337.194 146.208 348.991 146.776 357.372 150.587C365.754 154.398 370.683 160.506 372.162 168.91Z" fill="#E02955"/>
<defs>
<filter id="filter0_d_105_15" x="197.363" y="134.968" width="64.4227" height="66.9237" filterUnits="userSpaceOnUse" color-interpolation-filters="sRGB">
<feFlood flood-opacity="0" result="BackgroundImageFix"/>
<feColorMatrix in="SourceAlpha" type="matrix" values="0 0 0 0 0 0 0 0 0 0 0 0 0 0 0 0 0 0 127 0" result="hardAlpha"/>
<feOffset dx="-5" dy="3"/>
<feComposite in2="hardAlpha" operator="out"/>
<feColorMatrix type="matrix" values="0 0 0 0 1 0 0 0 0 0.529412 0 0 0 0 0.643137 0 0 0 1 0"/>
<feBlend mode="normal" in2="BackgroundImageFix" result="effect1_dropShadow_105_15"/>
<feBlend mode="normal" in="SourceGraphic" in2="effect1_dropShadow_105_15" result="shape"/>
</filter>
</defs>
</svg>
